<?xml version="1.0" encoding="utf-8"?>
<!-- Generator: Adobe Illustrator 25.1.0, SVG Export Plug-In . SVG Version: 6.00 Build 0)  -->
<svg version="1.1" id="Layer_1" xmlns="http://www.w3.org/2000/svg" xmlns:xlink="http://www.w3.org/1999/xlink" x="0px" y="0px"
	 viewBox="0 0 1024 1024" style="enable-background:new 0 0 1024 1024;" xml:space="preserve">
<path style="fill:#E55637;" d="M716.3,193.7c-7.4-21.2-20-40.3-36.4-55.6c-17.7-16.7-39.9-28.2-63.6-33.4
	c-18.1-4.1-37.5-4.7-55.7-0.7c-18.9,3.2-37.2,11.2-52.8,22.2c-35.1,24.4-57.8,66.7-58,109.5c-1.1,26.7,6,53.8,19.8,76.7
	c14.9,24.8,37.7,44.6,64.4,55.6c19.9,8.3,41.8,11.8,63.3,10c10.8-0.8,21.5-2.9,31.8-6.5c27-8.9,51.1-26.6,67.9-49.5
	c13.2-17.8,21.5-39.3,24.9-61.2C725.1,238.3,723.8,215.3,716.3,193.7z"/>
<path style="fill:#CB7E5F;" d="M196.1,603.6c1,4.8,3,9.3,3.8,14.1c-0.5,3.1-1.1,6.1-1.7,9.2c-0.9-0.6-1.9-1.3-2.8-2
	c-0.1-0.9-0.2-1.8-0.2-2.7c0.5-3.4,1.2-6.8,1.7-10.2c-0.8,0.3-1.7,0.7-2.5,1.1C194.5,610,195.3,606.7,196.1,603.6z"/>
<path style="fill:#E45A35;" d="M203.3,605.5c0.6,7.2,0.4,14.5,1.4,21.8c1.8-4.6,2.3-9.4,2.8-14.3c0.1,6.4,0.8,12.7,1,19
	c0.4-2,0.9-4,1.3-6c0.6-0.2,1.2-0.4,1.8-0.6c0,0.9,0.1,1.8,0.1,2.6c1.2-0.6,2.4-1.2,3.6-1.8c0.6,1.3,1.3,2.6,1.9,3.9l0.7,1.7
	c1-2.3,1.9-4.7,2.8-7.1c0.3,1.4,0.7,2.8,1,4.2c1.9-7,3.3-14,5.1-21c0.2,5.1-0.3,10.1-0.6,15.1c1.6-4.9,3-9.8,5.2-14.5
	c0.2,1.4,0.5,2.8,0.7,4.2c-1.2,4-2.4,8-3.5,12.1c0.9-0.5,1.9-1.1,2.8-1.7c-0.6,3-1.1,6-1.5,9c0.9-1.6,1.7-3.2,2.6-4.8
	c0.5,0.8,0.9,1.6,1.4,2.4c0.5-1.2,0.9-2.4,1.4-3.6c0.5-0.9,1-1.9,1.5-2.8c1.6-0.5,3.2-0.9,4.8-1.4c-0.1,0.7-0.2,1.4-0.3,2
	c-0.6,3.2-1.4,6.4-2.3,9.5c2.5-5.4,5.4-10.5,10-14.5c-1.3,2.9-2.6,5.7-3.7,8.6c3-2.5,5.7-5.2,9.1-7.2c-1.4,4.1-3.5,7.8-5.2,11.7
	c2.9-3.1,5.3-6.5,8.4-9.4c-1.5,5.4-4.4,10.5-6.7,15.5c3.2-3.3,6.5-6.6,10-9.6c-2.4,5.1-5.5,9.6-8.6,14.3c5.9-3.7,9-9.5,13.9-14.2
	c-0.9,2.7-2,5.4-3.2,8c-1.4,1.7-2.7,3.4-4,5.1c0.9,0.9,1.7,1.8,2.6,2.7c-1.9,2.4-3.6,4.9-5.2,7.5c-6.2,1.5-11.4,4.6-17.3,6.9
	c-4.4,1.8-8.9,3.2-13.6,4.3c0.5-1.4,1.6-3.2,1.1-4.6c-0.8-2.8-1.9-5.4-2.4-8.3c-3.1-1.6-5.9-3.9-9.1-5.1c-4.1-0.2-8.8,0.1-12.2,2.6
	c-2.8,1.8-5.8,3.7-8,6.1c-1.8,3.6-0.2,8.9,0.2,12.7c-2.6-0.3-5.2-0.4-7.7-0.7c-8.3-3.2-18-6.3-25-11.8c-4.8-4-9.2-8.4-12.7-13.6
	c1.5-0.2,3.1-0.5,4.6-0.7c-0.3-1.7-0.7-3.3-1-5c5.8,4,10.2,9.2,15.6,13.5c-2.3-2.6-4.8-5-7-7.8c-2.4-3.1-3.8-6.6-5.3-10.2
	c2.4-1.2,4.9-2.3,7.3-3.7c3.2,6.7,7.2,13,12.2,18.5c-2.3-4.2-5.5-8-7.6-12.4c-1.4-2.7-0.7-6.4-0.7-9.3c2.5,3,4.3,6.3,6.1,9.8
	c-1.2-5.3-2.6-10.3-1.9-15.7c5.2,6.6,6.1,14.4,10.2,21.5c-1-4.1-2.6-7.9-3.9-11.9c-1.1-3.1-0.8-7-0.8-10.3c2.9,3.8,5.1,7.6,6.5,12.2
	c-0.1-2.4-0.2-4.9-0.1-7.3c-0.5,0.4-1.1,0.9-1.6,1.3c-0.8-3.4-1.4-6.9-1.7-10.4c1.8,2,3.4,4.2,5,6.3c0.7-1.6,1.4-3.1,2.2-4.6
	c0.4,3,0.7,6,0.9,9c-0.8-0.9-1.6-1.9-2.5-2.8c1.9,3,3.2,6.1,4.2,9.5c-0.8-7.3-2-14.1-1.7-21.4c5.6,8.2,4.5,16.6,7.3,25.7
	c0.1-3.1,0.1-6.1-0.2-9.2c0.9,0.7,1.9,1.3,2.8,2c0.6-3,1.2-6.1,1.7-9.2c0.4,2.3,0.9,4.6,1.5,6.8C202.1,618,200.6,611.4,203.3,605.5z
	"/>
<path style="fill:#D96F4C;" d="M216.2,608.9c0,7.1,0.1,14.1,0.9,21.1c-0.6-1.3-1.3-2.6-1.9-3.9c-1.2,0.6-2.4,1.2-3.6,1.8
	c0-0.9-0.1-1.8-0.1-2.6c-0.6,0.2-1.2,0.4-1.8,0.6c0.6-4.2,0.1-8.7,1.3-12.7C212.2,611.4,214.6,610.2,216.2,608.9z"/>
<path style="fill:#E07F20;" d="M342.7,608.7c1,5.2,1.9,10.2,1.2,15.5c2-4.1,3.8-8.4,5.9-12.5c1.1,5.3,0.3,10.2-1,15.4
	c-1.1,2.5-2,5.1-2.6,7.8c-5-2.1-9.9-1.8-15-0.3c-5.3-2.8-7.7-7.4-11.4-11.9c-0.2-1.6-0.5-3.1-0.7-4.7c2.4,2.5,4.8,4.9,7.5,7
	c-0.5-3.4-1.2-6.7-1.9-10c1.1-0.4,2.1-0.8,3.2-1.2c1.3,4.1,3.5,7.7,6.1,11.2c1.1-3,2.1-6.1,3.2-9.1c0.9,1.7,1.8,3.4,2.6,5.1
	C340.5,616.9,341.4,612.8,342.7,608.7z"/>
<path style="fill:#CE693F;" d="M196.9,612.1c-0.5,3.4-1.2,6.8-1.7,10.2c-0.4-3-0.7-6.1-0.7-9.1C195.3,612.8,196.1,612.4,196.9,612.1
	z"/>
<path style="fill:#DC8F76;" d="M232,612.7c0.7,4.2,0.2,8.3,0.1,12.5c1.7-3.3,2.7-6.4,3.3-10.1c0.9,0,1.8,0.1,2.8,0.2
	c-1.5,3.5-2.3,7-2.9,10.8c-0.5,1.2-0.9,2.4-1.4,3.6c-0.5-0.8-1-1.6-1.4-2.4c-0.8,1.6-1.7,3.2-2.6,4.8c0.4-3,0.8-6,1.5-9
	c-0.9,0.6-1.9,1.1-2.8,1.7C229.6,620.7,230.7,616.7,232,612.7z"/>
<path style="fill:#D26C4A;" d="M243.3,612.4c1.7,4.5-0.6,7.5-2.1,11.6c0.1-0.7,0.2-1.3,0.3-2c-1.6,0.4-3.2,0.9-4.8,1.4
	C238.8,619.6,240.9,615.8,243.3,612.4z"/>
<path style="fill:#CF7E37;" d="M358.1,617.9c-1.2,4.9-4,9-7.2,12.7l-1.7-0.4c0.5-1.2,1-2.5,1.5-3.7
	C353,623.4,355.1,620.4,358.1,617.9z"/>
<path style="fill:#F9BF71;" d="M340.3,622.7c1.7,0.1,1.2,3.8-0.1,4.1C338.5,626.6,339,623.1,340.3,622.7z"/>
<path style="fill:#E47F1A;" d="M315.2,623c1.4,0.4,2.8,0.8,4.1,1.3c2.9,3.8,5.9,7.3,7.3,12l-1.9,1c-2.6-0.6-4.3-2.3-6.4-3.9
	C319.1,629.2,316.9,626.6,315.2,623z"/>
<path style="fill:#E9A85B;" d="M319.8,622.7c3.7,4.5,6.1,9.1,11.4,11.9c-1.6,0.5-3.2,1-4.7,1.7c-1.4-4.7-4.4-8.2-7.3-12L319.8,622.7
	z"/>
<path style="fill:#CE7D40;" d="M361.3,623.7c-2,4.2-5.2,7.1-8.5,10.2c-1.3,1.4-2.5,2.9-3.7,4.4c1.6-1.1,3.2-2.2,4.8-3.4
	c3.3-2.8,5.9-3.7,10.3-4c-2.4,1.8-5,3.5-7.6,5.1c-2.7,1.4-4.9,3.4-6.9,5.7c3.4-1.3,6.6-3.1,9.8-4.8l1.9,0.6c-4.3,3.4-8,5.3-13.3,6.7
	c-0.4-2.6-0.8-5.1-1.5-7.7c1.9-1.8,3.8-3.7,5.8-5.5C355.3,628.5,358,625.8,361.3,623.7z"/>
<path style="fill:#B4907D;" d="M309.2,625.6c1.2-0.7,2.5,1,1.6,2C309.6,628.3,308.3,626.6,309.2,625.6z"/>
<path style="fill:#F6A957;" d="M329,624.8c1.8,1.9,3,4.1,4,6.5C330.6,629.2,329.7,627.9,329,624.8z"/>
<path style="fill:#D9B07C;" d="M348.8,627.1l1.9-0.6c-0.5,1.2-1,2.4-1.5,3.7l1.7,0.4l1.4,0.4c-1.9,1.8-3.9,3.6-5.8,5.5l-0.4-1.5
	C346.8,632.2,347.7,629.6,348.8,627.1z"/>
<path style="fill:#E17528;" d="M312.8,629.6c1.9,1.1,3.8,2.4,5.5,3.8c2,1.6,3.8,3.3,6.4,3.9c0.6,0.2,1.3,0.4,1.9,0.6
	c-3.4,1.4-6.2,2.7-5.9,6.9c-6.6-0.4-12.7-2-18.7-4.6c6,0,11.7,1.6,17.7,2.3c-4.5-3.7-9.4-6.6-13.6-10.6c4.1,0.6,7.7,2,11.3,3.9
	C315.8,633.7,314.2,631.8,312.8,629.6z"/>
<path style="fill:#CA654C;" d="M269.1,631.8c-1.2,5.2-4.4,8.7-7.7,12.7c-0.9-0.9-1.7-1.8-2.6-2.7c1.3-1.7,2.6-3.4,4-5.1
	C265,635.2,267,633.5,269.1,631.8z"/>
<path style="fill:#161B1C;" d="M346.2,634.9l0.4,1.5c0.6,2.5,1.1,5.1,1.5,7.7c-3.4,3.1-6.1,6-10.9,7c0,3.2,0,6.4-0.1,9.6
	c-0.9,4.2-1.8,8.3-1.8,12.5c-0.2-7.1-0.1-14.1-0.4-21.2c-3.7-0.8-7.8-1-11.2-2.6c-1.8-0.8-2.1-3-2.9-4.7c-0.3-4.2,2.5-5.5,5.9-6.9
	c-0.6-0.2-1.3-0.4-1.9-0.6l1.9-1c1.5-0.7,3.1-1.2,4.7-1.7C336.2,633.1,341.2,632.8,346.2,634.9z"/>
<path style="fill:#F6B979;" d="M352.7,633.9l1.1,1c-1.5,1.2-3.1,2.3-4.8,3.4C350.2,636.8,351.4,635.3,352.7,633.9z"/>
<path style="fill:#EDB776;" d="M356.5,636c1,0.3,2,0.6,2.9,0.9c-3.2,1.7-6.4,3.5-9.8,4.8C351.6,639.4,353.8,637.4,356.5,636z"/>
<path style="fill:#EFB899;" d="M251.1,643.8c-4.2,5.9-10.6,10.3-17.1,13.4C239.3,652.4,245.3,648.1,251.1,643.8z"/>
<path style="fill:#1A1C1D;" d="M214.9,645c3.2,1.3,6,3.5,9.1,5.1c0.5,2.9,1.6,5.5,2.4,8.3c0.5,1.5-0.5,3.3-1.1,4.6
	c-0.4,0.6-0.9,1.3-1.4,1.9c-2.4,1.2-4.7,2.5-7.1,3.7c-2.2,1.1-4.1,1.7-6.6,1c-4.6-1.1-9.2-1.2-13.7-2.9c-0.6-0.2-1.2-0.3-1.7-0.5
	c-0.4-3.8-2-9.2-0.2-12.7c2.3-2.4,5.3-4.2,8-6.1C206.1,645.1,210.8,644.8,214.9,645z"/>
<path style="fill:#FF9176;" d="M176.3,646.2C176.8,646.7,176.8,646.7,176.3,646.2z"/>
<path style="fill:#DF6A22;" d="M267.5,649.6c-1.4,2.2-3.2,3.9-5.2,5.5c1.8-0.8,3.6-1.6,5.4-2.4c-0.1,1-0.1,2-0.2,3
	c-2.6,0.9-5.1,1.8-7.8,2.6c-0.9,0-1.8,0.1-2.7,0.1l-0.6,0.1c-3.3,0.4-6.5,2.2-9.5,3.5c0.9,1.1,1.8,2.2,2.8,3.2
	c-9.8,0.7-19.4,2.8-29.1,4c-0.3,2-0.5,4.1-0.8,6.1c-1-2.2-2-4.4-3-6.6c2.4-1.2,4.7-2.5,7.1-3.7c11-3.1,22.7-6.6,32.2-13
	C259.9,650.7,263.7,650,267.5,649.6z"/>
<path style="fill:#F2AA6F;" d="M256.1,651.9c-9.6,6.4-21.2,10-32.2,13c0.5-0.6,0.9-1.2,1.4-1.9c4.6-1.1,9.1-2.5,13.6-4.3
	C244.7,656.5,249.9,653.5,256.1,651.9z"/>
<path style="fill:#E3652F;" d="M152.3,655.2c11.9,2.2,22.9,8.6,34.8,10.5c2.5,0.4,5.1,0.4,7.7,0.7c0.6,0.1,1.2,0.3,1.7,0.5
	c-2.7,2.3-2.9,4.6-3.1,7.9c1,0.2,2.1,0.4,3.1,0.6c-1.2,1.6-2.5,3.7-4.2,4.8c-2.2,1.3-4.6,2.3-6.9,3.5c-6.3,3.7-11.5,8.5-18.8,10.5
	c4.1-6.8,10.3-9.5,16.4-13.9c-4.6,0.4-9,1-13.3,2.5c-4.6,1.7-9.2,3.3-14.1,4.1c2.3-3.1,4.7-5.3,8.2-7.2c5.3-3.2,11.2-3.7,17.2-5.1
	c-3.8,0.4-7.5,1-11.3,1.5c-4,0.4-7.8-0.6-11.8-0.3c-3.6,0.3-7.2,1.3-10.7,2c0.1-0.9,0.1-1.8,0.2-2.6c3.1-1.3,6.3-2.5,9.5-3.5
	c-3.1-0.9-6.3-1.4-9.6-2c6.2-2.3,12.5-2.2,19-1.6c-6.3-2-12.3-3.4-17.8-7.2c1.4-0.1,2.9-0.3,4.3-0.4c-1.4-0.5-2.8-1-4.1-1.5
	C149.9,657.8,151.1,656.5,152.3,655.2z"/>
<path style="fill:#E5832F;" d="M256.5,658.5l0.6-0.1c0.9,0,1.8-0.1,2.7-0.1c3.1,0.1,6.5-0.4,9.6,0.4c0.9,1.6,1.4,3.3,2,5
	c-4.7,2.1-10.7,2.8-14.2,6.5c3.2,0.6,6.3,0.8,9.5,0.7c-2.2,2-4.3,4.2-6.6,6c-2.1,0.4-3.8,0.9-5.6,2c4.8,0.6,8.9,0,12.9,3.4
	c-2.3,0.1-4.7,0.2-7,0.2c0.3,1,0.6,2,0.9,3.1c-6.8-0.9-13.5-2-19.9-4.7c4.8,3,8.5,6.3,11.6,11.1c-2.2,1-4.6,2.5-7,2.7
	c-2.2-0.4-4.4-1.5-6.4-2.4c-0.5,0.8-1,1.7-1.6,2.5c-2.3-1.3-4.6-2.6-6.9-4c-5.8-3.5-9.7-9.5-14.9-14.1c0.6,1.9,1.2,3.7,1.8,5.6
	c0,3,0.1,5.9,0.5,8.8c-0.8-0.7-1.6-1.3-2.5-2c1.6,5.7,1.6,10.2,0.7,16c-2.5-3.5-4.3-7.2-4.6-11.5c0.2-4.7-0.2-9.1-2-13.5
	c-2.6,3.7-2.9,5.3-1.9,9.7c-1.7,5.2-3.9,9.8-6.8,14.5c-0.6-3.3-1.3-6.6-2-9.9c-1.5,1.9-3,3.9-4.6,5.8c-1.6-6.1,0.4-11.3,1.4-17.2
	c-7.8,5.4-13.1,13.4-21.4,17c2.1-6.8,8.8-9.5,10.9-16.2c2.2-1.3,4.7-2.2,6.9-3.5c1.8-1,3-3.1,4.2-4.8c-1-0.2-2.1-0.4-3.1-0.6
	c0.2-3.3,0.3-5.6,3.1-7.9c4.4,1.7,9.1,1.8,13.7,2.9c2.5,0.7,4.3,0.1,6.6-1c1,2.2,2,4.4,3,6.6c0.3-2,0.5-4.1,0.8-6.1
	c9.7-1.3,19.3-3.3,29.1-4c-0.9-1.1-1.8-2.2-2.8-3.2C250,660.7,253.2,658.9,256.5,658.5z"/>
<path style="fill:#FD9877;" d="M231.2,658c1.6-0.4,2,1.4,0.6,2.1C230.2,660.5,229.9,658.6,231.2,658z"/>
<path style="fill:#E68426;" d="M747.4,666.8c0.8,4,1.1,8.1,1.3,12.2c0,6,4.1,10.1,5.2,16.1c0-2.2-0.1-4.5-0.1-6.7
	c0.6-3.3,1.1-6.5,1.5-9.8c0.4,1.5,1,2.9,1.5,4.3c0.5,0,1,0.1,1.5,0.1c0.5-2,0.9-4.1,1.4-6.1c0.3,2.4,0.6,4.8,0.8,7.1
	c0.3,3.7,0.8,7.4,1.2,11c1.5-4.1,3.3-8.2,4.6-12.4c0,2.8,0,5.7,0.1,8.5c1.2-2.5,2.4-5.1,3.5-7.7c1.8-4.2,3.2-8.5,4.7-12.8
	c0.3,5.3-1.2,10.2-2.6,15.3c1.4-2.4,2.7-4.8,4.1-7.2c-0.4,4.5-0.8,9-0.9,13.5c1.4-2.4,2.7-4.8,4-7.1c0.3-0.6,0.7-1.2,1-1.7
	c0.6,0.3,1.1,0.6,1.6,0.8c1.5-4.1,3.4-8,6-11.5c-0.9,5.3-3.4,10.1-4.2,15.5c1.8-2.2,3.5-4.4,5.3-6.6c-1,6.3-3.6,11.9-6.6,17.4
	c4.9-6.7,8.2-13.5,14.5-19c-1.6,3.7-3.4,7.3-4.9,11.1c3-3.2,5.6-6.6,9.2-9.3c-2.1,7.6-6.6,13.1-9.9,20.3c4.1-4.4,6.9-9.6,11.7-13.3
	c-1.1,4.2-2.7,8.2-5.4,11.7c-2.9,3.9-7.4,6.8-11.3,9.7c-3.6,2.7-7.3,5-11.3,7c-0.8,0.4-1.7,0.9-2.5,1.4l-1.1,0.7
	c-1.8-3.2-2.8-6.9-4.8-9.9c-4-3-10.3-5.7-15.1-3.2c-3.5,1.7-7.4,3.3-10.5,5.7c-3.8,4.1-4.2,12.1,0.6,15.6c4.1,1.8,9.2,1.9,13.6,2.6
	c5.2,0.8,8.9-3.1,13.2-5.2c2.1-0.8,4.3-1.6,6.4-2.4l1.3-0.5c6.7-1.5,13.2-3.3,19.4-6.4c3.5-1.2,6.7-2.7,9.8-4.8
	c0.7,0.2,1.4,0.4,2.1,0.7c0.4,0.8,0.8,1.5,1.2,2.3c1.1-0.2,2.1-0.3,3.2-0.5c0.1,0.7,0.2,1.5,0.3,2.2c-2,1.1-4.1,2.1-6.2,3.2
	c2.4,0,4.8-0.1,7.2,0.2c1.3,1.1,1.8,3.2,2.4,4.7c-5.5,1.7-10.8,3.3-15.6,6.7c5.3,0.4,10.6,0.3,15.8,0.9c-4.9,3.9-10.2,4.6-16.1,6.2
	c-0.1,0.7-0.1,1.4-0.2,2c4.1,0.3,7.8,0.4,11.4,2.7c-3.6,0.1-7.1-0.3-10.6-0.9c1.7,1.3,3.4,2.5,5.1,3.9c-5-0.4-9.8-1.3-14.6-2.5
	c-2.9-0.6-5.5-1.5-8.5-0.7l-1.5,0.4c-3.4-2.2-6.8-4.2-10.7-5.5c5.8,5.6,12.8,8.5,19,13.3c1.7,1.3,2.6,3.1,3.6,4.9
	c-3.9-0.8-7.3-2.6-10.6-4.9c-3.9-3.7-7.8-7.3-12.2-10.2c1.7,2.8,3.6,5.2,5.8,7.6c-0.9,0.6-1.8,1.1-2.7,1.7
	c-4.8-3.8-8.3-8.3-12.7-12.5c0.6,1.6,1.1,3.3,1.7,4.9c0.1,3.2,0.3,6.4,0.8,9.5c-0.9-1.4-1.9-2.7-2.8-4.1c0.8,6.2,2.6,11.6,0.4,17.9
	c-2.5-6.5-3.2-13.4-5.7-19.9c-0.8,2.2-1.6,4.4-2.2,6.7c-1.4,4.9-2.6,9.6-6,13.6c-0.8-3.2-1.3-6.4-2-9.7c-1.9,1.5-3.8,3.1-5.7,4.6
	c-0.7-6.9,0.7-13.6,3.2-20c-3.2,3.7-6.8,6.9-10.4,10.1c-4.1,3.6-7.2,7.4-12.5,9.2c2.1-5.6,6.4-8.3,9.9-12.8c2.2-2.7,4.5-5.3,7-7.7
	c-5.2,4.2-10.8,7.7-16.2,11.5c-2.5,1.8-5.2,3.2-8,4.4c3.7-7.7,10.8-10.1,17.1-15.4c-6.4,1.3-12.9,2.8-19.1,5c-3.1,1.1-6.1,2-9.3,2.6
	c3.7-4.3,8.2-7.4,12.8-10.5c-7.7-2.4-13.9,0.5-21.4,1.1c2.1-2.9,5.1-4.4,8.3-5.8c-3-0.7-6-1.4-8.9-2.2c7.6-1.3,15.4-1.5,23.1-0.9
	c-7.4-1.3-15.2-3.2-21.4-7.5c1.4-0.2,2.8-0.4,4.2-0.6c-1.7-1.2-3.3-2.4-5-3.7c3.1-0.5,6.2-0.8,9.3,0c9.2,2.2,17.3,6.8,26.8,8.2
	c-5.6-2.4-11.2-4.3-16.4-7.5c-7.2-4.3-12.7-10.4-18.1-16.6c1.6-0.4,3.1-0.8,4.7-1.2c-0.5-1.8-1-3.5-1.5-5.3
	c5.5,3.2,9.2,8.2,14.4,11.8c-3.8-5.9-8.5-9.8-9.4-17.1c1.8,0,4.9-1.5,6.2,0.2c3.5,3.5,5.9,8,9.1,11.8c-3-5.3-6.1-10.1-6.6-16.4
	c3.8,2.7,6.2,6.5,8.6,10.3c-1.8-5.6-3-11.1-2.8-17.1c2,3.4,3.7,7,5.1,10.8c0.5-2.6,1-5.1,1.6-7.7c1.7,3.2,3.5,6.4,5.4,9.5
	c0-3.4-0.1-6.8-0.1-10.2c0.9,1.4,1.8,2.8,2.7,4.2c2.5-4.4,3-9.1,2.9-14.1c1.2,2.8,2.2,5.6,2.7,8.6c1.2,7.1,2.4,14.2,4.5,21.2
	c-0.5-7-1.8-14-2.2-21c-0.2-3.2,0.5-6.3,1.5-9.3c0,1.5,0,3,0,4.5c0,2.1,0.7,3.8,1.6,5.6c0.3-2.8,0.5-5.6,0.7-8.5
	c1.5,5.7,1.8,11.5,3.2,17.1c0.7,2.9,1.1,5.8,1.6,8.7c-0.3-3.7-0.6-7.4-0.6-11.2C746.7,679.4,745.9,673.4,747.4,666.8z"/>
<path style="fill:#DEA974;" d="M769.9,667.8c0.2,5.4-1,10.4,0,15.7c-1.1,2.6-2.3,5.1-3.5,7.7c-0.1-2.8-0.1-5.7-0.1-8.5
	C767,677.6,768.1,672.6,769.9,667.8z"/>
<path style="fill:#DD9254;" d="M761.2,669.3c-0.2,4.9-0.6,9.8-0.7,14.7c-0.3-2.4-0.6-4.8-0.8-7.1c-0.5,2-0.9,4.1-1.4,6.1
	c-0.5,0-1-0.1-1.5-0.1c-0.5-1.4-1-2.8-1.5-4.3c0.1-1.7,0.2-3.3,0.3-5C757.6,672.3,759.4,670.8,761.2,669.3z"/>
<path style="fill:#E2D3A9;" d="M774.9,668.6c1.2,2.5,3,5,2.7,7.9c-0.3,3.4-1,6.9-1.5,10.3c1-0.6,2.1-1.1,3.1-1.7
	c-1.3,2.4-2.6,4.8-4,7.1c0.1-4.5,0.5-9,0.9-13.5c-1.4,2.4-2.7,4.8-4.1,7.2c1.4-5.1,2.9-10,2.6-15.3
	C774.7,670,774.8,669.3,774.9,668.6z"/>
<path style="fill:#F98B60;" d="M175.7,670.3c2.9-0.2,5.7-0.2,8.6,0C180.8,671.6,179.2,671.7,175.7,670.3z"/>
<path style="fill:#ED8755;" d="M257.1,670.2c4.9,0.1,9.7-0.1,14.5,0.2c-2.5,4.6-6.8,5.8-11.7,6.5c2.3-1.9,4.4-4.1,6.6-6
	C263.4,670.9,260.3,670.7,257.1,670.2z"/>
<path style="fill:#E9A968;" d="M733,669.1l0.5,1.1c0.1,5-0.3,9.7-2.9,14.1c-0.9-1.4-1.8-2.8-2.7-4.2c0,3.4,0.1,6.8,0.1,10.2
	c-1.9-3.1-3.7-6.3-5.4-9.5c0.5-2,0.9-4.1,1.3-6.1c1,1.3,2.1,2.5,3.1,3.8c0.5-1.9,0.9-3.7,1.4-5.6c1.2,2,2.5,4,3.7,6.1
	C732,675.6,732.1,672.4,733,669.1z"/>
<path style="fill:#F39943;" d="M220.8,671.3c4.8-0.2,9.5-0.4,14.2,0.8c6.2,1.6,11.5,1.8,16.9,4.7c-4-0.4-7.8-1.3-11.7-2.2
	C233.9,673.1,227.3,672.9,220.8,671.3z"/>
<path style="fill:#FBD29F;" d="M742.4,671.4c-0.2,2.8-0.3,5.7-0.7,8.5c-0.9-1.8-1.6-3.5-1.6-5.6
	C740.9,673.3,741.6,672.3,742.4,671.4z"/>
<path style="fill:#F1B681;" d="M752.7,671.8c0.3,5.5,0.1,11,1.1,16.5c0,2.2,0.1,4.5,0.1,6.7c-1.1-6-5.2-10.1-5.2-16.1
	c0.7,0.6,1.5,1.2,2.2,1.8C751.4,677.8,752,674.8,752.7,671.8z"/>
<path style="fill:#F6B865;" d="M220.8,675c2.4,0.7,4.4,1.6,6.4,3.1C224.8,677.5,222.8,676.6,220.8,675z"/>
<path style="fill:#F7DDB3;" d="M227.6,678.2c7.6,3,15.8,6.8,21.6,12.8c-3.6-1.3-6.9-3-10.1-5C235.1,683.4,231.1,681.4,227.6,678.2z"
	/>
<path style="fill:#FAB971;" d="M223.3,678.8c4.9,3.4,9.3,7.5,12.9,12.4C230.9,688.2,226.8,683.7,223.3,678.8z"/>
<path style="fill:#E4943C;" d="M209.9,680.2c1.8,4.4,2.2,8.8,2,13.5c-0.8,1.3-1.6,2.6-2.5,3.9l-0.2-0.9c-0.4-2.3-0.8-4.6-1.3-6.9
	C207,685.5,207.4,683.9,209.9,680.2z"/>
<path style="fill:#E2B173;" d="M217.9,682.4c5.2,6.8,5.7,14.7,5.2,23c-0.6-2.2-1.3-4.3-2-6.5c-1.4,3.4-2.8,6.8-4,10.2
	c-1.8-2.6-3.7-4.7-6.4-6.4c-0.4-1.7-0.8-3.4-1.2-5.1c0.8-1.3,1.7-2.6,2.5-3.9c0.4,4.4,2.2,8,4.6,11.5c1-5.8,0.9-10.3-0.7-16
	c0.8,0.7,1.6,1.4,2.5,2C218,688.3,217.9,685.4,217.9,682.4z"/>
<path style="fill:#E08230;" d="M810.1,689c-1.7,5.5-4.9,10.1-8,14.8c4.1-3.6,7.5-7.8,11.2-11.8c-0.8,3-1.7,5.9-3.8,8.3
	c-2.9,3.4-6.1,6.3-8,10.4c1.2,0,2.5,0,3.7,0c-3.1,2.1-6.2,3.6-9.8,4.8c-6.8,0.8-13.5,3-19.4,6.4l-1.3,0.5c-0.8-1.3-1.5-2.6-2.2-3.9
	c0.8-0.5,1.7-0.9,2.5-1.4l0.4,1.6c6.6-3.5,12.9-6.9,18.4-12.2C799.6,701.2,804.4,694.7,810.1,689z"/>
<path style="fill:#E9BC9B;" d="M208,689.8c0.5,2.3,0.9,4.6,1.3,6.9c-0.2,1.5-0.5,3-0.8,4.5l-0.8-2c-2.4,1.8-4.5,3.8-6.5,5.9l0-0.8
	C204.1,699.6,206.3,695.1,208,689.8z"/>
<path style="fill:#E35C32;" d="M285.9,691.4c1.6,3.8,1.8,8.5,2.2,12.6c0.4,4,0.1,7.7-0.8,11.6c-0.9,0-1.8,0.1-2.7,0.1
	c-1.4-7-1.3-13.9-0.8-21C284.4,693.3,283.8,691,285.9,691.4z"/>
<path style="fill:#F2A85C;" d="M791,692.8c-2,4.3-4.7,7.9-8.1,11.2C784.8,699.6,787.3,696,791,692.8z"/>
<path style="fill:#D96D43;" d="M293.9,693.5c0.4,2.5,0.7,5,1,7.5c0,5,0,10-1.3,14.9c-1-0.1-2.1-0.2-3.2-0.4
	C290.2,708.3,291.2,700.3,293.9,693.5z"/>
<path style="fill:#EDB79D;" d="M283.9,694.7c-0.5,7-0.7,14,0.8,21l-1.7,0.1c-0.9-3.4-1.4-6.8-1.8-10.2
	C282.6,702.1,283.3,698.4,283.9,694.7z"/>
<path style="fill:#DA562A;" d="M278.9,695.8c1.1,3.2,1.8,6.4,2.3,9.7c0.4,3.4,0.9,6.9,1.8,10.2c-0.9,0.1-1.8,0.2-2.8,0.3
	C278.5,709.5,276.6,702.6,278.9,695.8z"/>
<path style="fill:#181C1E;" d="M295.6,696.8c0.2,6.6,0,13.3-1.5,19.8l1.6,0.3c0.8,0.2,1.6,0.4,2.4,0.6c1,0.5,1.9,1.1,2.9,1.7
	c0.8,0.5,1.6,1.1,2.3,1.7l0.3,0.7c0.2,0.6,0.5,1.2,0.7,1.8c1.2,3.8,2,7.7,2.2,11.7c0.7,3.2-3.6,5.6-5.5,7.7
	c-3.1,2.2-5.5,3.2-9.3,3.4c-0.9,0-1.7-0.1-2.6-0.1c-0.9-0.1-1.9-0.2-2.8-0.3c-3.6-0.5-7.2-1.1-10.8-1.3c0.6-0.8,1.3-1.5,1.9-2.3
	c-2.4-1.5-4.9-1.8-5.9-4.7c-0.6-6.4-0.5-12.6,3.7-17.9l1.2-1.6c0.7-0.4,1.4-0.8,2.1-1.2c0.6-0.2,1.2-0.5,1.9-0.7
	c0.9-0.1,1.8-0.2,2.8-0.3l1.7-0.1c0.9,0,1.8-0.1,2.7-0.1c1.1,0,2.1,0,3.1,0c1.1,0.1,2.1,0.2,3.2,0.4c1.2-4.9,1.2-9.9,1.3-14.9
	C295.1,699.6,295.3,698.2,295.6,696.8z"/>
<path style="fill:#D95B33;" d="M272.6,698.3c2.8,5.8,4.6,12.1,5.7,18.5c-0.7,0.4-1.4,0.8-2.1,1.2c-0.5-2.1-1.3-4.2-2.1-6.2
	c0.2,2.6,0.5,5.2,0.9,7.8c-4.2,5.3-4.3,11.5-3.7,17.9c-2.6-0.7-4.9-1.3-7.6-0.7c0.3-1.2,0-2.2-0.8-3c-3.4-3.6-7.3-6.1-9.4-10.9
	c2,1,4,2,5.9,3.2c-0.6-1.4-1.2-2.9-1.7-4.3c1.4,1,2.7,2,4.1,3c-1.2-2.3-2.3-4.7-3.1-7.2c4,3.3,6.2,7.7,9.7,11.7
	c-0.3-6.5-2.3-12.3-1.7-18.8c1.7,3.6,3.2,7.2,5.1,10.7c-1.3-6.8-3.8-13.4-4.7-20.3c1.1,1,2.2,1.9,3.3,2.9
	C271.2,701.9,271.9,700.1,272.6,698.3z"/>
<path style="fill:#E85F3A;" d="M301,699.2c0.7,4,0.5,7.9,0.3,11.9c1.7-4.2,2.1-9.5,6.4-11.8c-0.4,7.4-1.4,14.7-4.4,21.6
	c-0.8-0.6-1.5-1.2-2.3-1.7c-0.1-1.9-0.1-3.7,0-5.6c-1,1.3-1.9,2.6-2.9,3.9c-0.8-0.2-1.6-0.4-2.4-0.6
	C297.7,711,298.8,704.9,301,699.2z"/>
<path style="fill:#E1593B;" d="M312,701.2c1.2,1.4,2.4,2.9,3.5,4.3c1.9-1.2,3.9-2.3,5.9-3.3c-1.4,4.1-3.4,7.9-5.3,11.8
	c2.6-3.3,5.1-6.5,8.3-9.2c-0.5,3.9-2.2,6.9-4.4,10.1c1.8-1.2,3.7-2.4,5.5-3.5c-1.4,2.9-3.1,5.7-4.7,8.5c2.6-1.2,5.1-2.5,7.7-3.6
	c-1.7,3.8-4,7.3-6.5,10.6c2.8-1.6,5.5-3.2,8.3-4.7c-0.7,1.8-1.2,4.2-2.8,5.5c-2.3,2-5,3.6-7.5,5.3c3.5-0.7,7-1.4,10.6-1.8
	c-1.5,1.9-2.8,3.7-5,4.7c-6.5,3.1-12.4,1.7-19.4,3.5c1.8,2.2,4.1,3.4,6.7,4.5c-1.6,0.9-3.3,1.9-4.9,2.8c-2.3-1.3-4.6-2.6-7-3.7
	c1.9-2.1,6.2-4.5,5.5-7.7c-0.2-4-1-7.9-2.2-11.7C307.7,716,307.9,708.2,312,701.2z"/>
<path style="fill:#1B1D1D;" d="M766.5,709.5c2.1,2.9,3,6.7,4.8,9.9c-1.1,1.8-2.1,3.7-3.1,5.6c-4.3,2.1-8,6-13.2,5.2
	c-4.5-0.8-9.5-0.8-13.6-2.6c-4.8-3.4-4.4-11.5-0.6-15.6c3.1-2.4,7-4,10.5-5.7C756.2,703.8,762.5,706.5,766.5,709.5z"/>
<path style="fill:#FCB08F;" d="M272.2,706.7c1.9-1.1,2.1,2.4,0.5,2.8C271.4,709.3,271.5,707.4,272.2,706.7z"/>
<path style="fill:#DFAC77;" d="M810.9,709c0.2,1.4,0.4,2.8,0.6,4.2c-1.1,0.2-2.1,0.3-3.2,0.5c-0.4-0.8-0.8-1.5-1.2-2.3
	c-0.7-0.2-1.4-0.4-2.1-0.7C807.1,710.3,809,709.6,810.9,709z"/>
<path style="fill:#F39170;" d="M274.1,711.7c0.9,2,1.6,4.1,2.1,6.2l-1.2,1.6C274.6,716.9,274.3,714.3,274.1,711.7z"/>
<path style="fill:#EE9283;" d="M301,713.6c0,1.9,0,3.7,0,5.6c-1-0.6-1.9-1.2-2.9-1.7C299,716.2,300,714.9,301,713.6z"/>
<path style="fill:#F6BD75;" d="M795.4,715.6c-6.2,3-12.7,4.8-19.4,6.4C781.9,718.6,788.6,716.4,795.4,715.6z"/>
<path style="fill:#696B66;" d="M742.1,719.6c1.3-0.7,2.3,1.2,1.4,2.1C742.1,722.5,741.2,720.6,742.1,719.6z"/>
<path style="fill:#DEAA6C;" d="M771.3,719.3l1.1-0.7c0.8,1.3,1.5,2.6,2.2,3.9c-2.1,0.8-4.3,1.6-6.4,2.4
	C769.2,723,770.2,721.2,771.3,719.3z"/>
<path style="fill:#EEBA73;" d="M732.5,721.4c0.9-1,3.3,0.1,2.7,1.5C734.3,723.9,731.9,722.8,732.5,721.4z"/>
<path style="fill:#F6AB55;" d="M786.4,735.6c3.5,0.2,6.6,1,9.8,2.3C792.6,737.9,789.5,737.3,786.4,735.6z"/>
<path style="fill:#E28C3A;" d="M769.6,740c4.4,3,8.3,6.5,12.2,10.2l-1.4-0.6c1.1,1.9,2.3,3.7,3.4,5.6c-3.9-1.6-7.7-3.3-11.1-5.8
	c0.9-0.6,1.8-1.1,2.7-1.7C773.3,745.2,771.4,742.8,769.6,740z"/>
<path style="fill:#E7AF6A;" d="M761.8,741.7c1.7,2.7,3.3,5.2,4.3,8.3c1.1,3.5,1,6.9,0.9,10.6c-0.9-2.5-1.7-5.1-2.4-7.6
	c-0.2,5.3-1,10.5-2,15.7c-4.4-1.7-4.8-5.4-6.8-9.2l-1,1.8c-0.5-2.2-1.2-4.3-1.9-6.4c-0.3-1-0.5-2.1-0.8-3.2c0.6-2.2,1.4-4.5,2.2-6.7
	c2.6,6.5,3.2,13.4,5.7,19.9c2.2-6.2,0.5-11.6-0.4-17.9c0.9,1.4,1.9,2.7,2.8,4.1C762.1,748,761.9,744.9,761.8,741.7z"/>
<path style="fill:#E6791B;" d="M782.1,742c6.3,0.9,12.3,4.9,14.1,11.2c-6-2.2-10-7.8-15.6-10.9L782.1,742z"/>
<path style="fill:#BA5D4E;" d="M301,742.8c2.4,1.1,4.7,2.4,7,3.7c2.4,1.4,4.9,2.8,7.2,4.3c-2.2-0.4-4.5-1-6.7-1.6
	c-0.5,1-1.1,2-1.6,3c-4.1-2.1-8.4-4-12.7-5.7c0.5,1.9,0.9,3.8,1.4,5.8c-1.4-2-2.6-4-3.8-6.1C295.6,746,298,745,301,742.8z"/>
<path style="fill:#E89677;" d="M298.9,744.9c2.7,0.4,5.1,1.3,7.5,2.5c-0.9,0.7-1.8,1.3-2.7,2C302.1,747.9,300.4,746.5,298.9,744.9z"
	/>
<path style="fill:#BB5138;" d="M167.5,748.4c1.1,6.5,0.6,13.4,0.7,20c-2.1,0-4.2,0.1-6.3,0.2c-0.5-4.6-0.6-9.2,0-13.9l1.2,1.5
	c2.3,4.1,0.7,7.4,0,11.6c1,0.1,2,0.3,3,0.4c-0.1-3.6-0.1-7.2-0.2-10.8C165.7,754.1,166,751.4,167.5,748.4z"/>
<path style="fill:#D88969;" d="M829.2,752c-0.2,7.9,0.9,15.9,1.7,23.7c-1-0.1-2-0.1-2.9-0.1c-0.1-3.2-0.2-6.4-0.3-9.6
	c-0.5,3.3-0.8,6.6-1.9,9.8l-0.7,0.6c0.1-5.1,0.2-10.2,0.1-15.3c0.8,0.3,1.5,0.7,2.3,1C827.7,758.6,828.4,755.3,829.2,752z"/>
<path style="fill:#DC5425;" d="M829.2,752l0.2-1c3.6,7.5,3.8,16.8,3.9,25c-0.8-0.1-1.6-0.2-2.4-0.3C830.2,767.8,829,759.9,829.2,752
	z"/>
<path style="fill:#AA5A4A;" d="M176.2,754.3c-0.6,5.9-1.2,11.8-1,17.8c1.8-2.8,3.6-5.6,5.7-8.3c-0.5,1.5-0.9,3-1.5,4.5
	c-1.1,2.3-1.9,4.7-2.4,7.2c2.5-1.6,4.8-3.4,7.2-5c-1.7,2.8-4,5-6.3,7.2c-1.6-2.4-3-5-4.2-7.7c-0.2-2.8-0.2-5.6-0.1-8.4
	C174.1,759.1,175,756.7,176.2,754.3z"/>
<path style="fill:#E15D3C;" d="M837.9,754.4l1.7,0.9c0.8,3.9,0.3,8.1,0.3,12c2.3-2.8,3.6-6.1,5-9.5c0.7,4.8,0.5,9.5,0.4,14.3
	c0.9-3.2,1.8-6.3,2.8-9.5c0.4,1,0.8,2,1.3,3c0.8-2.1,1.6-4.1,2.5-6.1c0.5,7.6-2.4,15.8-3.5,23.4c3.7-6.6,4.5-14.2,7.6-21.3
	c1.1,1.3,2.2,2.6,3.3,4c0.4,4.6-0.5,8.7-1,13.2c2-1.2,3.3-2.2,4.2-4.4c1.7-3.3,3.7-6.3,6.4-8.8c-0.9,2.8-2.2,5.5-3.4,8.2
	c1.5-0.8,3-1.6,4.5-2.4c-1.5,2.6-3.1,5.1-4.5,7.8c2.4-1,4.7-2.1,7.1-3c-1.2,4.3-4.4,7.8-6.9,11.7c2.7-1.7,5.4-3.2,8.5-4.1
	c-1.9,4.3-5.4,6.1-8.6,9.2c2.9-0.5,5.8-1.1,8.6-1.5c-1.2,1.7-2,3.3-4,4.2c-6.4,3.1-12.6,2.9-19.5,3.2c0.6,1.1,1.2,2.2,1.7,3.2
	c-1.4-0.1-2.7-0.3-4.1-0.4c2.9,1.3,6,2.3,9,3.4c-1.9,0.8-3.8,1.6-5.6,2.4c2.3,1,4.7,2,7.1,2.9c-3.4-0.1-6.3,0-9.5,1.6
	c-3.1-1.6-6.2-3.2-9.3-4.5c0.3,1.7,0.7,3.3,1,5c-1.2-1.8-2.3-3.6-3.5-5.5c2.8-1.2,5.5-2.2,7.9-4c2.2-1.5,4.1-3.5,6.4-4.8
	c1.5-0.5,3.1-0.4,4.7-0.4c-1.5-0.4-4.6,0.1-5.1-1.9c-1.1-2.9,0.5-7.1-1.4-10c-1.6-2.4-3.5-4.6-5.4-6.7c1.1-0.8,1.9-2.4,0.9-3.6
	c-1.6-0.7-2.3,1.6-2.1,2.8c-3.4-0.9-6.9-1.5-10.4-2.3C836.9,769.5,835.4,761.5,837.9,754.4z"/>
<path style="fill:#E6876C;" d="M163,756.2c0.9,0.5,1.8,0.8,2.8,1.2c0.1,3.6,0.2,7.2,0.2,10.8c-1-0.1-2-0.3-3-0.4
	C163.7,763.6,165.3,760.4,163,756.2z"/>
<path style="fill:#ED9D7C;" d="M149.6,757.6l0.4,0.5c1.1,4.9,2.9,8.5,6.9,11.6l-0.9,0.3c-4-2.7-5.8-6.6-8.2-10.6
	C148.4,758.8,149,758.2,149.6,757.6z"/>
<path style="fill:#C95C35;" d="M823,756.2c1.1,1.5,1.8,3.1,2.2,4.9c0.1,5.1,0.1,10.2-0.1,15.3l-1.6,1.3
	C822.8,770.4,821.9,763.5,823,756.2z"/>
<path style="fill:#B9422A;" d="M150,758.1c3.2,3.4,6.1,7.1,8.8,11l-1.9,0.6C152.9,766.5,151.1,763,150,758.1z"/>
<path style="fill:#D88D7D;" d="M170.7,757.3c1.4,3.6,1.6,7.2,1.7,11c0.4-2.2,0.8-4.4,1.2-6.6c-0.1,2.8-0.1,5.6,0.1,8.4
	c-1.1-0.4-2.3-0.8-3.4-1.1C169.7,765.1,169.7,761.2,170.7,757.3z"/>
<path style="fill:#BC634D;" d="M146.3,759.5l1.6-0.2c2.4,4,4.3,7.9,8.2,10.6c-3.2,2.1-5.5,5-7.4,8.2c-4.4-0.6-8.7-1.3-12.9-3
	c4.3,0,8.6,0.8,12.8,1.3c-4.1-2.2-8.3-3.7-12-6.5c3.7,0.8,7.2,2.2,10.9,3.3c1.1,0.2,2.1,0.4,3.2,0.5c0.5-2-1.1-3.1-2.2-4.5
	c-2.8-2.4-6-4.3-8.9-6.5c1.4,0.5,2.9,0.9,4.3,1.4c-0.9-1.5-1.9-3-2.8-4.6c5.3,2.9,7.4,7.9,11.9,11.6
	C150.5,767.4,147.9,763.7,146.3,759.5z"/>
<path style="fill:#D9AB97;" d="M696,760.4c0,1.8-0.1,3.5-0.2,5.2c-1.2,5.7-1.1,11.3-0.6,17.1l-1,0c0-4.6,0.4-8.8-2.3-12.9
	c-1.3,4.3-1.4,8.5-1,13c-0.8,0.1-1.7,0.1-2.5,0.2l-0.5-0.6c0.8-0.5,1.5-1,2.3-1.5c0-6.9,0.3-13.5,2.7-20
	C693.9,760.7,695,760.5,696,760.4z"/>
<path style="fill:#DC4D1B;" d="M815.9,759.6c1.2,0.8,2.4,1.2,2.9,2.6c2,5.2,1.9,10.8,4.1,15.9c-1.2,1-2.3,1.9-3.4,3
	c0.4-3,1.4-5.5-2.3-6.7c0.1,1.7,0.2,3.5,0.4,5.2c-0.7-0.2-1.3-0.3-2-0.5c-1.6-5.9-3.7-11.5-3.8-17.7c1.1,1.2,2.7,2.3,3.4,3.8
	c0.9,2.8,1.3,5.9,2,8.8C817.5,769.1,816.1,764.5,815.9,759.6z"/>
<path style="fill:#A37365;" d="M178.8,761.4c-0.6,2.3-1.4,4.1-2.8,6C176.2,764.4,176.4,763.3,178.8,761.4z"/>
<path style="fill:#DC745B;" d="M866.2,762.4c-1.6,3.9-3,7.8-3.5,12c-0.9,2.2-2.2,3.2-4.2,4.4c0.5-4.5,1.4-8.6,1-13.2
	C861.7,764.6,863.9,763.5,866.2,762.4z"/>
<path style="fill:#CE5A3A;" d="M698.9,762.7c2.3,6,1.7,13,2.6,19.3c0.9-3.4,1.8-6.8,2.9-10.1c-0.3,4.9-0.4,9.7,0.5,14.5
	c1.6-2.4,2.9-4.9,4.3-7.4c-0.3,2.3-0.6,4.6-1,6.9c1.2-0.6,2.5-1.3,3.8-1.9c-1.3,2.1-2.7,4.1-4,6.2c2-1,4-2,6-3.1
	c-2.2,2.4-4.6,4.2-7,6.3c-1-2.3-1.8-4.9-3.3-7c-1.5-1.7-4-2.6-6.1-3.5c0.4-1.5,1-3.8,0.1-5.1c-1.6-0.1-0.9,4.1-0.6,5.1h-1.9
	c-0.5-5.8-0.6-11.4,0.6-17.1c0.4,3.5,0.9,7,1.6,10.5C698,771.7,698.4,767.2,698.9,762.7z"/>
<path style="fill:#CF917B;" d="M139.4,766.8c3,0.9,6,1.8,9,2.3c1.2,1.4,2.8,2.4,2.2,4.5c-1.1-0.1-2.1-0.2-3.2-0.5
	C144.9,770.9,142.1,768.9,139.4,766.8z"/>
<path style="fill:#BC5935;" d="M827.7,766c0.1,3.2,0.2,6.4,0.3,9.6c-0.7,0-1.5,0.1-2.2,0.2C826.9,772.5,827.2,769.3,827.7,766z"/>
<path style="fill:#171B1E;" d="M168.2,768.5c0.7,0.2,1.4,0.3,2.1,0.5c1.1,0.4,2.3,0.7,3.4,1.1c1.2,2.7,2.5,5.2,4.2,7.7
	c-1.3,2.3-2,5.4-3.9,7.3c-1.7,1.6-3.8,1.8-5.9,2c-2.7,0-5.5-0.2-8.2-0.3c0.8,0.6,1.5,1.2,2.3,1.9c-3.7,0.7-6.6-0.2-10-1.5
	c-0.7-0.3-1.5-0.5-2.2-0.7c-0.1-0.8-0.2-1.6-0.4-2.4l-0.2-1l-0.3-1.8l-0.2-1.1l-0.4-1.9c1.9-3.3,4.2-6.1,7.4-8.2l0.9-0.3l1.9-0.6
	c1-0.2,2-0.3,3-0.4C164,768.5,166.1,768.5,168.2,768.5z"/>
<path style="fill:#EBB5A3;" d="M179.5,768.4c1.7,0.6,3.5,1.1,5.3,1.5c-0.2,0.2-0.3,0.5-0.5,0.7c-2.4,1.6-4.8,3.4-7.2,5
	C177.6,773.1,178.4,770.7,179.5,768.4z"/>
<path style="fill:#E0AEA0;" d="M707.4,768c0.1,1,0.1,1.9,0.2,2.9c-1,3.8-1.9,7.6-2.2,11.6c1-2.2,1.9-4.4,2.6-6.7l0.2,1.2
	c0.8,0.2,1.5,0.5,2.2,0.7c-0.2,1-0.4,2-0.6,3c1.2-0.5,2.3-1.1,3.5-1.6c0.4,2.5,1.3,5.5,0.6,8c-2,1.1-4,2.1-6,3.1
	c1.3-2.1,2.7-4.1,4-6.2c-1.3,0.6-2.5,1.3-3.8,1.9c0.3-2.3,0.7-4.6,1-6.9c-1.4,2.5-2.7,5-4.3,7.4c-0.8-4.8-0.7-9.6-0.5-14.5
	C704.9,770.3,706.3,769.2,707.4,768z"/>
<path style="fill:#F3A092;" d="M841.2,767.5c-0.3,2.5-0.7,4.9-1.3,7.3C839.2,771.5,838.2,769.9,841.2,767.5z"/>
<path style="fill:#D45837;" d="M677.5,770.5c4.2,3.4,7.2,7.6,10.3,11.9l0.5,0.6l-1.8,0.2c-1.6-1.8-3-3.6-4.5-5.5
	c0.3,1.9,0.7,3.8,1,5.8l-0.1,0.9c-3.6-3.4-6.6-7.2-9.2-11.4c1.8,0.9,3.5,1.9,5.2,2.9C678.5,774.2,678,772.4,677.5,770.5z"/>
<path style="fill:#CD4F36;" d="M691.9,769.9c2.6,4.1,2.3,8.2,2.3,12.9c-1.1,0-2.2,0.1-3.3,0.2C690.4,778.4,690.5,774.2,691.9,769.9z
	"/>
<path style="fill:#B16C5E;" d="M707.6,770.8c0.1,1.6,0.3,3.3,0.4,4.9c-0.7,2.3-1.6,4.5-2.6,6.7C705.7,778.5,706.6,774.7,707.6,770.8
	z"/>
<path style="fill:#C05E3D;" d="M668.8,772.9c6.4,2.9,8.7,8.2,13,13.2c-0.9,1.1-1.8,2.2-2.8,3.2c-4-3.7-8.6-6.7-12.3-10.7
	c5.1,1.6,8.1,5.1,12.3,8.1C675.8,782,671.7,777.9,668.8,772.9z"/>
<path style="fill:#DF5B39;" d="M810.2,772.8c1.4,0.9,1.8,1.5,2.2,3c1,3.5,2,7,3.2,10.4c0,4.3,0.5,8.4,0.9,12.7c-2.3-1.5-4.6-3-7-4.2
	c-0.4,1.1-0.7,2.3-1.1,3.4c-0.8-0.4-1.6-0.8-2.5-1.3c0.4-1.2,0.8-2.5,1.2-3.7c-3.7-2.7-6.6-5.7-9.1-9.6c2.3,1.3,4.5,2.8,6.6,4.3
	c-1.3-2.4-2.6-4.8-3.7-7.4c2.8,2,4.9,4.6,6.9,7.3c-1.5-2.7-3.1-5.4-4.2-8.3c4.5,2.9,6.2,7.2,9.3,11.4
	C812.8,784.7,810.5,779,810.2,772.8z"/>
<path style="fill:#D87B61;" d="M817.2,774.5c3.7,1.2,2.7,3.8,2.3,6.7c-1.3,1.3-2.6,2.7-3.9,4c0-2,0.1-4,0-6.1c0.6,0.2,1.3,0.3,2,0.5
	C817.4,777.9,817.3,776.2,817.2,774.5z"/>
<path style="fill:#181C1F;" d="M828,775.6c1,0,2,0.1,2.9,0.1c0.8,0.1,1.6,0.2,2.4,0.3c3.5,0.8,7,1.3,10.4,2.3l1.2,0.8
	c1.9,2.1,3.8,4.4,5.4,6.7c1.9,2.8,0.3,7,1.4,10c0.5,1.9,3.6,1.4,5.1,1.9c-1.5,0.1-3.2,0-4.7,0.4c-2.3,1.4-4.2,3.3-6.4,4.8
	c-2.5,1.7-5.2,2.8-7.9,4c-1.3-0.3-2.6-0.5-3.9-0.8c-0.1,1.7-0.2,3.4-0.2,5.1c-0.2-1.5-0.4-3-0.7-4.6c-0.6-0.1-1.3-0.3-1.9-0.4
	c-3.6-0.8-7.1-1.5-10.8-1.6c0.6-0.5,1.2-1.1,1.8-1.6c-2-1.3-3.8-2.6-5.7-4c-0.4-4.2-0.9-8.4-0.9-12.7v-1.1c1.3-1.3,2.6-2.7,3.9-4
	c1.1-1,2.3-2,3.4-3l0.6-0.5l1.6-1.3l0.7-0.6C826.5,775.7,827.2,775.6,828,775.6z"/>
<path style="fill:#F09385;" d="M845.8,775.4c1.1,1.1,0.2,2.8-0.9,3.6l-1.2-0.8C843.6,777,844.2,774.7,845.8,775.4z"/>
<path style="fill:#F69F8B;" d="M697.7,777.6c0.9,1.4,0.3,3.7-0.1,5.1l-0.5,0C696.8,781.8,696.1,777.6,697.7,777.6z"/>
<path style="fill:#F4AD91;" d="M682.1,777.8c1.5,1.8,3,3.7,4.5,5.5c-1.2,0.1-2.4,0.2-3.6,0.3C682.8,781.7,682.4,779.8,682.1,777.8z"
	/>
<path style="fill:#BE6454;" d="M149,780.2l0.2,1.1c-5.4,1.1-10.7,1.2-16-0.1C138.5,779.5,143.6,780,149,780.2z"/>
<path style="fill:#E2852C;" d="M322,782.3c0.8,0.6,1.6,1.2,2.4,1.8c1.1-0.7,2.2-1.5,3.4-2.2c1.1,2.6,2.1,5.2,3.1,7.9
	c0.8-2.2,1.7-4.3,2.6-6.5c0.6,0,1.3,0,1.9,0.1c0.4,1.4,0.9,2.7,1.4,4.1c-0.4,5.7,0.6,11.8-1.2,17.1c-0.5,1.6-1.1,3.2-1.5,4.9
	c-2.8-0.8-5.8-2-8.7-2c-2.7,0-5.2,0.9-7.8,1.7c-2.2-7.5-3.1-15.1-2.8-22.9c1.9,0.6,3.8,1.2,5.7,1.8
	C320.8,786.2,321.3,784.2,322,782.3z"/>
<path style="fill:#BD6550;" d="M149.5,783l0.2,1c-5.6,1.3-11.3,1.3-16.9,0.5C138.2,783.3,143.8,782.8,149.5,783z"/>
<path style="fill:#A44929;" d="M664.7,783.8c4.4,0.4,8.3,1.7,11.1,5.2C671.8,787.9,668.1,786,664.7,783.8z"/>
<path style="fill:#BB644A;" d="M150,786.4c0.8,0.2,1.5,0.5,2.2,0.7c-5,1.3-11,3.7-16.1,2.3C140.6,788,145.3,787,150,786.4z"/>
<path style="fill:#AF4D38;" d="M664.8,787.8c4.9,0.9,8.6,3.1,13.8,2.1c-0.2,0.8-0.4,1.6-0.6,2.5C672.5,792.2,669.2,791,664.8,787.8z
	"/>
<path style="fill:#B76A52;" d="M663.7,793.6c4.7,0,9.4,0.2,14.1,0.4l0.4,1.9c-5.2-0.4-10.4-0.5-15.5-1.3L663.7,793.6z"/>
<path style="fill:#C06845;" d="M660.5,797.3c5.9-0.6,11.9-0.2,17.8-0.4l0.2,1C672.5,799.4,666.4,799.6,660.5,797.3z"/>
<path style="fill:#97827A;" d="M811.1,799.7c1.3-0.6,2.4,1.9,1.5,2.8C811.2,803,810.1,800.6,811.1,799.7z"/>
<path style="fill:#B95C45;" d="M678.6,800.6l1.3,0.4c-4.9,2-9.9,3.2-15.2,3C669,801.8,673.7,800.8,678.6,800.6z"/>
<path style="fill:#141819;" d="M325.2,807.5c2.9,0,6,1.2,8.7,2c-0.4,1.9-0.4,4.3-1.5,5.9c-1.4,0.5-2.8,0.8-4.2,1.1l-2.3,0
	c-1.6-0.1-3.2-0.2-4.7-0.7c-2.3-1.2-3.1-4.3-3.9-6.6C320,808.4,322.5,807.5,325.2,807.5z"/>
<path style="fill:#B73C29;" d="M848.6,807.3c0.9-1,3.3,0,2.7,1.5C850.4,809.8,848,808.7,848.6,807.3z"/>
<path style="fill:#12100E;" d="M326,816.5l2.3,0c-0.2,45.6,0.2,91.2-0.2,136.8l-2,0C326.1,907.6,326.1,862,326,816.5z"/>
<path style="fill:#E4AC6D;" d="M872.1,826c1.7-0.1,3.3-0.1,4.9-0.1c0,1.6,0,3.3,0,4.9c-1.7-1.3-3.4-2.6-5-3.9L872.1,826z"/>
<path style="fill:#E08531;" d="M877.1,825.9l1.7,0.2c1.5,2.3,2.7,4.7,3.9,7.2c0.7-2.8,1.7-5.4,3.1-7.9c3.4,10,0.8,18.8-2.1,28.4
	c-2.5-1.7-4.8-3.2-8-3.2c-3-0.2-5.6,1-8.3,2.2c-1.3-6-2.5-12.4-2.2-18.5c0.2-1.3,0.4-2.5,0.6-3.8c1.5,1.2,3,2.5,4.5,3.7
	c0.3,2.3,0.4,4.6,0.5,6.9c0.4-4.7,0.7-9.4,1.2-14c1.6,1.3,3.3,2.6,5,3.9C877.1,829.1,877.1,827.5,877.1,825.9z"/>
<path style="fill:#DC9F65;" d="M868.8,827.3c0.7,2.2,1.2,4.5,1.6,6.7c-1.5-1.2-3-2.4-4.5-3.7c-0.2,1.3-0.4,2.5-0.6,3.8
	c0-2.4,0.1-4.8,0.2-7.2C866.5,827.1,867.6,827.2,868.8,827.3z"/>
<path style="fill:#131B1D;" d="M883.7,853.8c-0.5,1.5-0.8,3-1.5,4.5c-1.1,0.9-2.4,1.5-3.7,2.2c-0.1,30.9,0,61.8-0.1,92.7l-2.2,0
	c-0.1-31.1,0.3-62.2-0.2-93.2c-1.8-0.4-3.8-0.6-5.5-1.3c-1.8-1.2-2.5-3.9-3.1-5.9c2.7-1.2,5.2-2.3,8.3-2.2
	C878.9,850.5,881.2,852.1,883.7,853.8z"/>
<path style="fill:#F6F3EF;" d="M752.2,860.6c0.1,30.8,0.1,61.6,0,92.4l-1-0.1c-0.8-0.2-1.6-0.3-2.4-0.5c1.1-2.8,1.8-5.6,1.8-8.6
	c0.2-21.2,0-42.5,0.1-63.8C750.9,873.2,749.7,867.1,752.2,860.6z"/>
<path style="fill:#0B1A23;" d="M878.5,953.1l-2.2,0c-14.2,0-28.3-0.1-42.5,0c-0.1-47.3,0-94.7,0-142c-0.2-1.5-0.4-3-0.7-4.6
	c-0.6-0.1-1.3-0.3-1.9-0.4c0.4,49,0.1,97.9,0.1,146.9c-25.5,0.1-51-0.1-76.4,0.1c-0.2-64,0.2-128-0.1-192c-0.5-2.2-1.2-4.3-1.9-6.4
	c-0.9,10-0.6,20.1-0.6,30.1c-0.1,25.2,0.1,50.4-0.2,75.6c0.1,30.8,0.1,61.6,0,92.4l-1-0.1c-14.9,0.4-29.8,0.2-44.8,0.2
	c-0.6-32.8-1.4-65.5-3.9-98.3c-1.5-17.7-3.3-35.4-5.6-53.1c2.1-0.6,4.5-1.2,6.4-2.4c1.6-1.6,2.4-4.1,3.6-6c-1-2.3-1.8-4.9-3.3-7
	c-1.5-1.7-4-2.6-6.1-3.5l-0.5,0h-1.9l-1,0c-1.1,0-2.2,0.1-3.3,0.2c-0.8,0.1-1.7,0.1-2.5,0.2l-1.8,0.2c-1.2,0.1-2.4,0.2-3.6,0.3
	l-0.1,0.9c-0.4,0.5-0.8,1.1-1.2,1.6c-0.9,1.1-1.8,2.2-2.8,3.2l-0.5,0.6c-0.2,0.8-0.4,1.6-0.6,2.5l-0.2,1.6l0.4,1.9l0.2,1.1l0.2,1
	c0,0.9,0,1.8,0,2.6l1.3,0.4c2.4,0.6,4.7,1.8,7.2,2.2c2.6,0.1,5.3-0.3,7.9-0.5c4,28.9,6.2,58.2,7.9,87.3c0.4,21,1.4,42.1,1.3,63.1
	c-18.7,0-37.5,0-56.2,0.1c-5.1,0-10.5,0.2-15.5-0.5c2-1.3,4-2.5,6-3.9c9.5-7,18-15.8,25.3-25c3.5-4,6.3-8.4,8-13.4
	c2.9-8.5,2.6-18.4-3.9-25.2c-6.9-7-17.6-7.6-26.5-4.7c-5.7,1.6-10.4,5.1-15.8,7.4c-2.4-19.8-4.1-39.6-6.2-59.4
	c-2.3-19.2-5.5-38.4-9.7-57.2c-2-7.7-3.6-17.4-9-23.5c-3.8-4.9-10-8.2-15.5-10.8c-12.8-5.8-26.2-10.3-38.8-16.6
	c0.5-4.2,0.4-8.5,1.1-12.6c1.4-2.4,4-4.1,5.9-6.1c2.2-2.2,3.7-4.9,5.7-7.2c2.1-1.4,4.8-1.6,6.3-3.7c3.1-3.9,5.2-8.6,6.6-13.4
	c0.7-2.8,1.3-6.1-0.5-8.7c-1.4-0.9-3.1-1.4-4.6-2c2-8.6,1.7-18.3-2-26.5c-3.5-7.4-10.9-12.5-18-16c-9.4-4.6-20.1-5.4-30-2
	c-8.2,2.8-17,7.7-22,15c-5.4,8.7-6,19.6-4.2,29.5c-1.8,0.5-4.2,0.5-5.7,1.7c-2.2,3.7-0.7,9.3,0.7,13c1.9,4.4,3.2,9.1,7.9,11.1
	c3.3,1.3,4.3,4.1,6.3,6.8c2.2,3.1,5.1,5.5,8,7.9c0.1,4.2,0.1,8.4-0.1,12.7c-6.3,2.5-12.7,4.6-19.2,6.5c-9.2,2.6-19.1,5.3-27.2,10.4
	c-8.2,4.6-11,12.4-13.7,20.9c-2.3,7.4-4.2,14.8-5.8,22.4l-0.5,2c-0.9,3.8-1.7,7.6-2.4,11.5c-1.9,9.9-4,19.6-5.2,29.6
	c-3.1,21.7-5.4,43.5-8.5,65.2c-5.7-3.2-11.8-6.9-18.2-8.4c-5.5-1.4-11-0.9-16.2,1.3c-2.1,0.9-3.8,2.2-5.5,3.7
	c-2.9,3-4.9,7.1-5.5,11.2c-0.9,7.5,0.9,14.9,4.7,21.5c3.7,6.2,8.7,11.8,13.2,17.5c6.2,6.8,12.7,13.3,20.5,18.3c-27,0-54.1,0-81.1,0
	c3.8-54.3,2.9-107.4,2.4-162c-0.7-43.5-1.9-86.9-2.6-130.3c-0.9,4.2-1.8,8.3-1.8,12.5c0.3,15.2,0.8,30.3,0.9,45.4
	c0.5,17.5,1,34.9,1.2,52.3c0,5.8,0.4,11.6,0,17.5c0.5,14.1,0.7,28.4,0.6,42.5c0,35.5,0.4,70.5-1.9,106c-0.3,5.5-1,10.8-1.1,16.3
	c-2.3,0-4.6,0-6.9-0.1l-2,0c-12.4,0-24.8-0.1-37.2-0.1c-0.2-56.1,0-112.1,0-168.1c0.1-13-0.2-26,0.4-39c-0.9-0.1-1.9-0.2-2.8-0.3
	c0.2,57.7,0.1,115.5,0.1,173.3c0,11.3-0.1,22.7-0.1,34.1c-25.1,0.2-50.3-0.1-75.4,0.2c-0.2-83.4,0.1-167-0.2-250.5
	c-0.4-1.7-0.8-3.4-1.2-5.1l-0.2-0.9c-0.2,1.5-0.5,3-0.8,4.5c-0.5,20.2,0,40.5-0.3,60.8c-0.1,63.7,0.1,127.4,0,191.1
	c-10.1,0-20.2,0-30.4,0.1c-0.2-14.7-0.9-29.4-1-44.2c-1-40.8-3.6-81.3-8.7-121.9c-2.7,0-5.5-0.2-8.2-0.3c0.8,0.6,1.5,1.2,2.3,1.9
	c1.2-0.2,2.5-0.3,3.7-0.5c0.5,2.6,0.9,5.2,1.2,7.8c4.1,35.2,6.6,70.6,7.4,106c0.3,17,0.9,34,1.1,51c-58.6,0.2-117.1,0-175.7,0.1v5.8
	c341.3-0.1,682.7,0,1024,0v-5.7C975.5,953,927,953.1,878.5,953.1z"/>
</svg>
