<svg viewBox="0 0 40 43" fill="none" xmlns="http://www.w3.org/2000/svg">
  <path
    d="M4.72166 22.8331C4.34953 22.6768 3.95414 22.5941 3.53549 22.5067C3.06567 22.4102 2.5819 22.3045 2.12139 22.0976C1.64692 21.8861 1.19571 21.6287 0.772405 21.3299C0.70263 21.2793 0.670069 21.192 0.693327 21.1139C0.716585 21.0311 0.78636 20.9714 0.87009 20.9622C1.47946 20.8886 1.99114 20.5806 2.53073 20.2496C2.68424 20.1577 2.84239 20.0612 3.00055 19.9738C3.1401 19.8957 3.29826 19.8543 3.46106 19.8543C4.03322 19.8543 4.64259 20.3324 5.23335 20.7921C5.62409 21.0955 6.02413 21.4127 6.36835 21.546C6.44743 21.5781 6.50325 21.6563 6.4986 21.7436C6.4986 21.831 6.44278 21.9045 6.35905 21.9321C5.86597 22.0976 5.40546 22.3826 4.94494 22.7963C4.90773 22.8331 4.85656 22.8515 4.80539 22.8515C4.77283 22.8469 4.74957 22.8423 4.72166 22.8331ZM13.2621 31.218C13.3784 30.9789 13.5133 30.7031 13.7087 30.3767C13.7459 30.317 13.7459 30.2434 13.718 30.1791C13.6854 30.1147 13.6249 30.0733 13.5552 30.0641C13.09 30.009 12.5551 29.4252 12.169 28.9931C12.1318 28.9517 12.0992 28.9149 12.062 28.8781C12.0015 28.9976 11.6945 29.2091 11.6247 29.2505C10.7642 29.7699 8.0383 30.5009 5.68456 30.5009C4.6891 30.5009 4.28906 30.3951 4.21463 30.3308C3.689 29.8987 4.73562 28.6345 5.36359 27.8806C5.62409 27.568 5.82876 27.3198 5.92644 27.1405C6.74979 25.6694 7.59174 24.7409 9.23843 24.6397C9.30355 24.6351 9.35937 24.603 9.39658 24.5524C9.4338 24.5018 9.4431 24.4375 9.42449 24.3777C9.31285 23.9916 9.26168 23.6652 9.22447 23.4031C9.12679 22.7688 9.05701 22.3091 8.15459 22.3091C7.97783 22.3091 7.7592 22.3229 7.4894 22.3596C6.05204 22.5343 5.20544 23.4077 4.3914 24.3685C2.49352 26.6072 -0.0276802 29.8573 0.000229711 32.1833C0.000229711 32.2385 0.023488 32.2937 0.0653529 32.3304C0.102566 32.3672 0.153734 32.3856 0.204903 32.3856C0.209554 32.3856 0.214206 32.3856 0.218858 32.3856C0.470047 32.3672 0.73054 32.358 1.00034 32.358C2.08417 32.358 3.17266 32.5051 4.22859 32.6476C5.0938 32.7626 5.98692 32.8821 6.88934 32.9235C7.12192 32.9326 7.35916 32.9372 7.60104 32.9372C8.5965 32.9372 9.66173 32.8545 11.0526 32.6614C12.5969 32.4592 12.8295 32.096 13.2621 31.218ZM7.95922 25.6603C7.20565 26.1245 6.76839 26.906 6.34509 27.6645C6.01483 28.2529 5.70316 28.8046 5.26126 29.2229C5.19613 29.2827 5.17753 29.3746 5.21474 29.4527C5.2473 29.5309 5.32173 29.5769 5.40546 29.5769C5.41011 29.5769 5.41476 29.5769 5.41476 29.5769C5.54501 29.5723 5.67991 29.5677 5.82411 29.5677C6.23811 29.5677 6.65675 29.5953 7.0661 29.6228C7.4801 29.6504 7.9127 29.678 8.336 29.678C8.61975 29.678 8.8756 29.6642 9.11748 29.6412C9.41054 29.609 9.77802 29.4344 10.1641 29.2459C10.513 29.0758 11.4433 28.6115 11.7131 28.5104C11.4526 28.2024 11.2154 27.7795 10.9642 27.3335C10.4199 26.359 9.85244 25.3569 8.8942 25.3569C8.6058 25.3523 8.28949 25.458 7.95922 25.6603ZM11.7596 13.9978C11.7503 13.938 11.7131 13.8828 11.6619 13.8552C10.9595 13.4415 10.1455 13.253 9.08957 13.253C8.57324 13.253 8.0383 13.299 7.52662 13.3404C7.01493 13.3818 6.48464 13.4277 5.97296 13.4277H5.91249C5.85202 13.4277 5.79155 13.4553 5.75433 13.5013C5.71247 13.5473 5.69851 13.6116 5.70782 13.6714C6.00552 15.3722 7.13588 16.7559 8.66627 17.2846C8.76396 17.3443 8.96863 17.4179 9.54078 17.4869C9.55009 17.4869 9.55939 17.4869 9.56404 17.4869C9.64777 17.4869 9.72685 17.4363 9.75941 17.3581C10.2199 16.1951 10.8758 15.124 11.7131 14.177C11.7503 14.1219 11.7689 14.0575 11.7596 13.9978ZM24.6726 31.3099C24.6447 31.2961 24.6168 31.2915 24.5889 31.2915C24.561 31.2915 24.5331 31.2961 24.5052 31.3099C23.826 31.6041 23.1283 31.8294 22.4259 31.9811C22.3608 31.9949 22.3049 32.0408 22.277 32.1052C22.2491 32.165 22.2584 32.2385 22.2956 32.2937C23.4167 34.0405 22.5654 35.4748 20.942 37.0883C20.314 37.7135 19.9233 37.9893 19.6674 37.9893C19.3697 37.9893 19.1046 37.525 18.7046 36.8171C18.6022 36.6378 18.4859 36.4309 18.3557 36.2149C17.8905 35.4334 17.4207 34.5922 17.2021 33.6912C17.109 33.3188 17.1276 33.0338 17.1369 32.7855C17.1649 32.2385 17.1416 31.8891 16.3089 31.5949C16.202 31.5582 16.0903 31.5214 15.9787 31.4846C15.4251 31.3053 14.8995 31.1352 14.7181 30.6755C14.6902 30.602 14.6204 30.5514 14.5413 30.5468C14.5367 30.5468 14.5274 30.5468 14.5227 30.5468C14.4529 30.5468 14.3832 30.5836 14.3459 30.6434C13.3784 32.2017 13.2575 33.7555 13.9738 35.3828C14.5971 36.7987 15.7694 38.1042 16.8997 39.3638C17.9789 40.5636 18.9976 41.6991 19.5325 42.8805C19.5651 42.954 19.6395 43 19.7233 43C19.8023 43 19.8768 42.954 19.914 42.8805C20.2954 42.0622 20.9885 41.5566 21.7235 41.0187C21.8258 40.9452 21.9282 40.867 22.0351 40.7889C22.7841 40.2326 23.3469 39.5017 23.8912 38.7938C24.0261 38.6145 24.1703 38.4352 24.3098 38.2559L24.3145 38.2467C24.3377 38.2146 24.3656 38.187 24.3889 38.1548C24.3935 38.1502 24.3982 38.1456 24.4028 38.141L24.5238 37.9893C24.5424 37.9617 24.5703 37.9295 24.5889 37.8882C26.0356 35.8058 25.5611 33.8015 24.7889 31.4248C24.7657 31.3789 24.7238 31.3375 24.6726 31.3099ZM12.9132 33.1717C12.9132 33.1027 12.8807 33.0384 12.8249 33.0016C12.7876 32.9786 12.7504 32.9648 12.7086 32.9648C12.6807 32.9648 12.6574 32.9694 12.6341 32.9786C12.1457 33.1671 11.6526 33.2223 11.1782 33.2728C10.1362 33.3832 9.15004 33.4889 9.21052 35.2127C9.23843 35.9988 9.42914 36.7895 9.76871 37.5066C9.80593 37.5802 9.88036 37.6261 9.95943 37.6261C9.98269 37.6261 10.0059 37.6216 10.0246 37.617C10.4525 37.4744 10.8898 37.3365 11.3224 37.1986C11.3224 37.1986 11.3224 37.1986 11.327 37.1986C11.3689 37.1986 11.3689 37.1986 11.5363 37.1343C11.7457 37.0515 11.9503 36.9872 12.1457 36.9274C12.6527 36.7711 13.09 36.6332 13.2807 36.2654C13.4017 36.0264 13.4017 35.7276 13.2714 35.3415C13.0202 34.6105 12.9039 33.8842 12.9132 33.1717ZM15.3786 11.6303H15.3833C15.467 11.6303 15.5461 11.5798 15.5786 11.497C15.7461 11.0695 16.4671 10.9224 17.0532 10.8029C17.1788 10.7753 17.2998 10.7523 17.4067 10.7247C17.4672 10.7109 17.5184 10.665 17.5463 10.6098C17.5742 10.55 17.5695 10.4857 17.5416 10.4305C16.5834 8.61931 17.7649 7.20804 19.0581 5.91629C19.6861 5.29111 20.0768 5.01069 20.3326 5.01069C20.6303 5.01069 20.8908 5.47498 21.2909 6.17832C21.3932 6.3576 21.5049 6.55527 21.6304 6.76673C21.877 7.18046 22.077 7.79645 22.291 8.44922C22.6864 9.65822 23.0632 10.7983 23.7935 11.0603C23.9005 11.0971 24.0028 11.1338 24.1051 11.166C24.7424 11.3821 25.1983 11.5384 25.4169 12.0808C25.4448 12.1544 25.5192 12.2049 25.5983 12.2095C25.603 12.2095 25.6076 12.2095 25.6123 12.2095C25.6867 12.2095 25.7611 12.1682 25.7937 12.0992C26.6356 10.5592 26.6915 9.04223 25.9658 7.46547C25.3378 6.09098 24.1982 4.83601 23.1004 3.62241C22.0212 2.4272 21.0025 1.30094 20.4582 0.10573C20.435 0.0459696 20.3605 0 20.2768 0C20.1977 0 20.1233 0.0459696 20.0861 0.119521C19.7047 0.937781 19.0116 1.44345 18.2766 1.98129C18.1743 2.05484 18.0719 2.13299 17.9649 2.21114C17.216 2.76737 16.6532 3.49829 16.1089 4.20622C15.9694 4.3855 15.8252 4.57398 15.6856 4.75326L15.4484 5.04747L15.4577 5.05206C13.9552 7.16667 14.4436 9.22151 15.1832 11.4878C15.2158 11.5706 15.2902 11.6257 15.3786 11.6303ZM27.0868 9.8421C27.0868 9.91105 27.1194 9.97541 27.1752 10.0122C27.2124 10.0352 27.2497 10.049 27.2915 10.049C27.3194 10.049 27.3427 10.0444 27.3659 10.0352C27.8544 9.8467 28.3474 9.79153 28.8219 9.74097C29.8639 9.63064 30.85 9.52491 30.7896 7.80105C30.7617 7.01497 30.5709 6.22429 30.2314 5.50716C30.1942 5.43361 30.1197 5.38764 30.0406 5.38764C30.0174 5.38764 29.9941 5.39224 29.9755 5.39684C29.5476 5.53934 29.1103 5.67725 28.6777 5.81516C28.6777 5.81516 28.6777 5.81516 28.6731 5.81516C28.6312 5.81516 28.6126 5.82435 28.5707 5.83814L28.4637 5.87952C28.2544 5.96226 28.0497 6.02662 27.8544 6.08638C27.3473 6.24268 26.9101 6.38059 26.7194 6.74834C26.5984 6.98739 26.5984 7.28619 26.7287 7.67233C26.9799 8.40325 27.0961 9.12957 27.0868 9.8421ZM20.3559 5.93928C20.3233 5.88411 20.2675 5.84274 20.2024 5.83814C20.1931 5.83814 20.1838 5.83814 20.1745 5.83814C20.1187 5.83814 20.0628 5.86113 20.0256 5.9025C19.8768 6.0588 19.6954 6.22429 19.5046 6.39897C18.7976 7.04715 17.9277 7.85161 17.8347 8.81698C17.83 8.85375 17.83 8.89053 17.8254 8.92271C17.8207 9.00086 17.8207 9.06062 17.8254 9.11578C17.844 9.52031 17.9696 9.8467 18.1975 10.0811C18.6255 10.5179 19.3418 10.5776 19.9884 10.5776C20.207 10.5776 20.4303 10.5684 20.6489 10.5638C20.8583 10.5546 21.0769 10.55 21.2769 10.55C21.5793 10.55 21.8072 10.5638 21.9979 10.6006C22.0119 10.6006 22.0212 10.6052 22.0351 10.6052C22.0817 10.6052 22.1328 10.5868 22.17 10.5546C22.2166 10.5133 22.2445 10.4581 22.2445 10.3937C22.2305 9.01465 21.5142 7.85161 20.8211 6.72076C20.6676 6.45873 20.5047 6.19671 20.3559 5.93928ZM10.5455 9.04223C11.5084 9.16635 12.8388 9.48813 13.6947 10.3432C13.7366 10.3845 13.7877 10.4029 13.8436 10.4029C13.8808 10.4029 13.918 10.3937 13.9506 10.3753C14.0343 10.3294 14.0715 10.2328 14.0436 10.1409C13.6622 8.81238 13.6017 7.7275 13.8668 6.72076C13.8808 6.661 13.8715 6.60124 13.8343 6.55067C13.8017 6.50011 13.7459 6.46793 13.6854 6.46333C12.9923 6.39438 12.4155 6.06799 11.8108 5.72322C11.6154 5.61289 11.4154 5.49797 11.2154 5.39684C11.1875 5.38304 11.1503 5.37385 11.1177 5.37385C11.0805 5.37385 11.0479 5.38304 11.0154 5.40143C10.9549 5.43361 10.913 5.49797 10.9084 5.56692C10.9037 5.66346 10.8991 5.76 10.8898 5.85194C10.8339 6.83109 10.7735 7.84702 10.3827 8.75262C10.3548 8.81238 10.3595 8.88133 10.392 8.9365C10.4199 8.99626 10.4804 9.03763 10.5455 9.04223ZM7.92201 21.3621C8.25227 21.3621 8.61045 21.3023 8.97793 21.2334C9.03375 21.2242 9.10353 20.9759 9.08957 20.9208C8.92676 20.2312 9.15935 19.2429 9.40589 18.3695C9.41984 18.3143 9.41519 18.2545 9.38263 18.204C9.35007 18.1534 9.2989 18.1212 9.24308 18.112C8.08016 17.919 7.03354 17.3168 6.2102 16.3652C5.43802 15.4688 4.93099 14.3241 4.78214 13.1427C4.93099 12.8991 6.63815 12.5497 9.0384 12.5497C10.3455 12.5497 11.02 12.6646 11.2014 12.7658C11.4154 12.8853 11.5736 12.991 11.6992 13.0784C11.8992 13.2163 12.048 13.3128 12.2341 13.3128C12.4853 13.3128 12.7225 13.1335 13.197 12.7658C13.4575 12.5589 13.6435 12.4624 13.7645 12.398C13.8947 12.3291 13.9971 12.2739 14.0296 12.1406C14.0622 12.0073 13.9924 11.9015 13.8761 11.7315C13.8389 11.6763 13.7877 11.6027 13.7319 11.5154C13.0621 10.4765 11.9457 9.88807 10.3223 9.71338C10.1315 9.695 9.93617 9.68121 9.7315 9.68121C8.97793 9.68121 8.22436 9.81911 7.49405 9.95702C7.02424 10.0444 6.53581 10.1363 6.05669 10.1823C5.5264 10.2374 4.9496 10.265 4.29371 10.265C3.63318 10.265 2.96334 10.2374 2.3121 10.2145C2.05626 10.2053 1.80042 10.1961 1.54923 10.1869C1.54458 10.1869 1.54458 10.1869 1.53993 10.1869C1.4655 10.1869 1.40038 10.2236 1.35851 10.288C1.3213 10.3524 1.3213 10.4351 1.35851 10.4995C1.66087 10.9959 1.86089 11.5614 2.05161 12.1084C2.12139 12.3107 2.19581 12.5221 2.27489 12.729L2.27954 12.7428C2.53538 13.4093 2.73541 14.2184 2.94938 15.0734C3.31221 16.5215 3.68434 18.0247 4.3914 19.2107C5.22404 20.5944 6.41022 21.3621 7.92201 21.3621ZM32.0409 21.7896C31.5757 21.7896 31.0733 21.854 30.5384 21.9781C30.4779 21.9919 30.4267 22.0332 30.3988 22.0884C30.3709 22.1436 30.3709 22.2079 30.3988 22.2631C30.4872 22.447 30.6454 22.5665 30.7756 22.6584C30.9291 22.7688 30.9803 22.8147 30.971 22.8699C30.864 23.5273 30.7337 24.1019 30.5616 24.6259C30.543 24.6811 30.5523 24.7455 30.5849 24.796C30.6175 24.8466 30.6686 24.8834 30.7291 24.8926C32.5479 25.1822 34.0225 26.4004 34.6737 28.1518C35.0412 29.1493 35.1296 29.701 34.9575 29.9492C34.7528 30.2388 34.0457 30.2434 33.0689 30.2526C32.9247 30.2526 32.7712 30.2526 32.6084 30.2572C32.1478 30.2618 31.6873 30.3216 31.2454 30.3767C30.8175 30.4319 30.3756 30.4871 29.9476 30.4917H29.9197C29.4034 30.4917 29.0405 30.2756 28.6591 30.0504C28.3381 29.8619 28.0079 29.6642 27.5753 29.5769C27.5381 29.5677 27.5008 29.5677 27.4636 29.5677C27.1752 29.5677 26.9054 29.7745 26.6217 29.9952C26.3751 30.1883 26.1193 30.3859 25.9146 30.3859C25.8355 30.3859 25.7658 30.4319 25.7286 30.5009C25.6913 30.5698 25.7006 30.6526 25.7472 30.7169C27.0403 32.4178 28.1474 33.3418 30.2779 33.3418C30.3802 33.3418 30.4872 33.3418 30.5988 33.3372C31.3896 33.305 32.1711 33.1717 32.9247 33.043C33.7806 32.8959 34.669 32.7488 35.5622 32.7488H35.6273C36.3111 32.7534 37.0088 32.7764 37.6787 32.8039C37.9392 32.8131 38.1997 32.8223 38.4602 32.8315C38.4648 32.8315 38.4648 32.8315 38.4695 32.8315C38.5439 32.8315 38.609 32.7947 38.6509 32.7304C38.6881 32.666 38.6881 32.5833 38.6509 32.5189C38.0275 31.4892 37.6554 30.032 37.2647 28.492C36.8553 26.8876 36.4367 25.2327 35.6878 23.9686C34.8039 22.5021 33.6178 21.7896 32.0409 21.7896ZM29.4545 33.967C28.4916 33.8429 27.1613 33.5211 26.3054 32.666C26.2635 32.6247 26.2123 32.6063 26.1565 32.6063C26.1193 32.6063 26.0821 32.6155 26.0495 32.6338C25.9658 32.6798 25.9286 32.7764 25.9565 32.8683C26.3379 34.1968 26.3984 35.2817 26.1333 36.2884C26.1193 36.3482 26.1286 36.408 26.1658 36.4585C26.1984 36.5091 26.2542 36.5413 26.3147 36.5459C27.0078 36.6148 27.5846 36.9412 28.1893 37.286C28.3847 37.3963 28.5847 37.5112 28.7847 37.6124C28.8126 37.6261 28.8498 37.6353 28.8824 37.6353C28.9196 37.6353 28.9522 37.6261 28.9847 37.6078C29.0452 37.5756 29.0871 37.5112 29.0917 37.4423C29.0964 37.3457 29.101 37.2492 29.1103 37.1573C29.1661 36.1781 29.2266 35.1622 29.6173 34.2566C29.6453 34.1968 29.6406 34.1279 29.608 34.0727C29.5801 34.0129 29.5197 33.9762 29.4545 33.967ZM35.6459 19.7256C35.5901 19.7256 35.5343 19.7486 35.4924 19.7899C34.8598 20.4565 34.2737 20.8702 33.641 21.0817C33.5573 21.1093 33.5015 21.1874 33.5015 21.2702C33.5015 21.3575 33.5527 21.4356 33.6317 21.4678C33.8829 21.5644 34.1341 21.6747 34.3806 21.7804C35.1668 22.1206 35.9762 22.4746 36.8228 22.4746C37.4786 22.4746 38.088 22.2677 38.6881 21.8356C38.7486 21.7896 38.7811 21.7161 38.7718 21.6425C38.7625 21.569 38.7113 21.5046 38.6369 21.477C38.2834 21.3437 37.9485 21.169 37.6461 20.9484L37.567 20.8932C37.474 20.8242 37.4135 20.7829 37.3763 20.7553C37.074 20.5484 36.7623 20.3645 36.4646 20.1853C36.232 20.0474 35.9948 19.9049 35.7575 19.7532C35.725 19.7348 35.6878 19.7256 35.6459 19.7256ZM37.0972 16.7421C38.2601 15.1102 40.0185 12.6371 39.9999 10.8258C39.9999 10.7707 39.9766 10.7155 39.9347 10.6787C39.8975 10.642 39.8463 10.6236 39.7952 10.6236C39.7905 10.6236 39.7859 10.6236 39.7812 10.6236C39.53 10.642 39.2695 10.6512 38.9997 10.6512C37.9159 10.6512 36.8274 10.5041 35.7715 10.3616C34.9063 10.2466 34.0132 10.1271 33.1107 10.0857C32.8782 10.0765 32.6409 10.0719 32.399 10.0719C31.4036 10.0719 30.3384 10.1547 28.9475 10.3478C27.4171 10.5546 27.1985 10.8672 26.724 11.8234C26.6403 11.9981 26.5426 12.1911 26.4217 12.4118C26.3844 12.4762 26.3891 12.5543 26.4263 12.6187C26.4635 12.6784 26.5333 12.7152 26.6031 12.7152H26.6077C26.6403 12.7152 26.6728 12.7106 26.7008 12.7106C26.7287 12.706 26.7612 12.706 26.7891 12.706C26.8264 12.706 26.8357 12.7106 26.8357 12.7106C26.8357 12.7106 26.8403 12.7152 26.845 12.7244C26.8589 12.7474 26.8775 12.7704 26.9008 12.7888C27.1845 13.014 27.3752 13.1979 27.5101 13.3312C27.7241 13.5381 27.8637 13.676 28.0963 13.676C28.3102 13.676 28.5289 13.5518 29.008 13.2806L29.0591 13.253C29.929 12.7612 30.8361 12.7014 31.5292 12.7014C31.9246 12.7014 32.3339 12.7244 32.7293 12.7474C33.1387 12.7704 33.5573 12.7934 33.976 12.7934C34.1946 12.7934 34.3946 12.7888 34.5853 12.775C34.7295 12.7658 34.8644 12.7612 34.99 12.7612C35.6366 12.7612 35.7761 12.9037 35.8087 12.9634C35.9296 13.2071 35.4505 13.8461 35.0644 14.3609C34.8644 14.6275 34.6551 14.908 34.483 15.1746C34.362 15.3677 34.2411 15.5653 34.1248 15.7538C33.3247 17.0731 32.6316 18.2132 30.9152 18.3649C30.8547 18.3695 30.7989 18.4016 30.7617 18.4522C30.7244 18.5028 30.7151 18.5625 30.7291 18.6223C30.8035 18.9119 30.8221 19.2015 30.8361 19.4544C30.8686 20.0657 30.9012 20.7001 31.9153 20.7001C31.9664 20.7001 32.0223 20.7001 32.0781 20.6955C32.6316 20.6771 33.1712 20.5622 33.6875 20.3508C34.9761 19.7761 36.0273 18.2729 36.7995 17.1789C36.8879 17.0363 36.9902 16.8938 37.0972 16.7421ZM19.6442 37.0745C19.6767 37.1297 19.7326 37.1711 19.7977 37.1756C19.807 37.1756 19.8163 37.1756 19.8256 37.1756C19.8814 37.1756 19.9372 37.1527 19.9745 37.1113C20.114 36.9642 20.2629 36.8171 20.4117 36.6746C21.5002 35.5989 22.7282 34.3853 21.7514 32.7166C21.7467 32.6936 21.7374 32.6752 21.7235 32.6522L21.5886 32.4592C21.5839 32.4546 21.5793 32.4454 21.5746 32.4408C21.3141 32.1282 20.5001 32.1006 19.2116 32.096C18.7185 32.096 18.2487 32.0914 18.0161 32.05C18.0022 32.05 17.9928 32.0454 17.9789 32.0454C17.9324 32.0454 17.8812 32.0638 17.844 32.096C17.7975 32.1374 17.7696 32.1971 17.7696 32.2569C17.7975 33.921 18.5278 35.1576 19.3 36.4723C19.4116 36.67 19.5279 36.8722 19.6442 37.0745ZM32.5479 16.926C32.9758 16.4663 33.2829 15.9285 33.5806 15.4136C33.9248 14.816 34.2457 14.2506 34.7388 13.7909C34.8039 13.7311 34.8226 13.6392 34.7853 13.561C34.7528 13.4829 34.6784 13.4369 34.5946 13.4369C34.59 13.4369 34.5853 13.4369 34.5853 13.4369C34.4551 13.4415 34.3202 13.4461 34.176 13.4461C33.762 13.4461 33.3433 13.4185 32.934 13.391C32.52 13.3634 32.0874 13.3358 31.6641 13.3358C31.3803 13.3358 31.1245 13.3496 30.8826 13.3726C30.3849 13.4231 30.0081 13.6346 29.6453 13.8369C29.3662 13.9932 29.0964 14.1403 28.7987 14.2046C28.7289 14.2184 28.6684 14.269 28.6451 14.3379C28.6219 14.4069 28.6312 14.4804 28.6777 14.5356C28.9196 14.8344 29.1429 15.2573 29.3801 15.7078C29.8871 16.6686 30.4128 17.6615 31.2594 17.6615C31.6687 17.6615 32.092 17.4225 32.5479 16.926ZM30.1709 25.6511C29.6685 26.7911 28.9801 27.8346 28.1242 28.7494C28.0776 28.7954 28.059 28.8643 28.073 28.9241C28.0823 28.9885 28.1242 29.0436 28.1846 29.0712C29.2917 29.6228 30.343 29.6918 31.1384 29.6918C31.585 29.6918 32.0316 29.6688 32.5014 29.6412C32.9851 29.6136 33.4829 29.5861 33.9992 29.5861H34.0922C34.1527 29.5861 34.2132 29.5585 34.2504 29.5125C34.2923 29.4665 34.3062 29.4068 34.2969 29.3424C33.962 27.4163 32.52 25.8993 30.7151 25.5683C30.6175 25.5499 30.5105 25.5361 30.3849 25.5223C30.3756 25.5223 30.3709 25.5223 30.3616 25.5223C30.2825 25.5269 30.2081 25.5729 30.1709 25.6511ZM27.0775 21.3299C27.0775 23.2101 26.4542 24.9615 25.3192 26.2625C24.0354 27.7381 22.2119 28.515 20.0396 28.515C17.8673 28.515 16.0392 27.7335 14.7599 26.2625C13.6249 24.9569 13.0016 23.2055 13.0016 21.3299C13.0016 19.4498 13.6249 17.6983 14.7599 16.3974C16.0438 14.9217 17.8673 14.1449 20.0396 14.1449C22.2119 14.1449 24.04 14.9263 25.3192 16.3974C26.4496 17.6983 27.0775 19.4498 27.0775 21.3299ZM25.4913 21.3299C25.4913 19.8635 25.0076 18.4982 24.1284 17.4869C23.1422 16.3514 21.7281 15.7492 20.0396 15.7492C18.351 15.7492 16.9369 16.3514 15.9508 17.4869C15.0716 18.4982 14.5878 19.8635 14.5878 21.3299C14.5878 22.7963 15.0716 24.1616 15.9508 25.173C16.9369 26.3084 18.351 26.9106 20.0396 26.9106C21.7281 26.9106 23.1422 26.3084 24.1284 25.173C25.0029 24.1616 25.4913 22.7963 25.4913 21.3299ZM23.64 17.9649C22.7655 16.9582 21.5188 16.425 20.0349 16.425C18.551 16.425 17.3044 16.9582 16.4299 17.9649C15.6577 18.8521 15.2298 20.0474 15.2298 21.3299C15.2298 22.6079 15.6577 23.8031 16.4299 24.6949C17.3044 25.7016 18.551 26.2349 20.0349 26.2349C21.5188 26.2349 22.7655 25.7016 23.64 24.6949C24.4121 23.8077 24.8401 22.6125 24.8401 21.3299C24.8401 20.0474 24.4121 18.8521 23.64 17.9649ZM25.6774 29.6228C25.6541 29.6228 25.6262 29.6228 25.603 29.6228C25.5983 29.6228 25.589 29.6228 25.5844 29.6228C25.5844 29.6228 25.5518 29.6228 25.5378 29.6228C24.9099 29.6228 24.5517 29.963 24.133 30.3584C23.7888 30.6847 23.4306 31.0203 22.8957 31.172C21.9747 31.434 21.0118 31.5674 20.0442 31.5674C19.086 31.5674 18.1324 31.4386 17.216 31.1812C16.6067 31.0111 16.0112 30.7859 15.4437 30.51C15.3972 30.4871 15.3647 30.4503 15.3414 30.4043C15.0763 29.7745 14.4669 29.3562 13.825 29.3562C12.9505 29.3562 11.8434 27.7886 11.0712 26.4739C10.4339 25.389 10.0059 24.203 9.80593 22.948C9.79662 22.8883 9.81523 22.8285 9.85245 22.7826C10.2385 22.3275 10.3455 21.6977 10.1315 21.1368C9.74546 20.1301 9.7315 19.7578 10.0432 18.6315C10.4199 17.2662 11.0433 16.025 11.848 15.0505C12.7458 13.9564 13.8296 13.2163 15.0623 12.8531C15.3926 12.7566 15.6763 12.5773 15.8996 12.3199C16.5229 11.5935 17.1183 11.4556 18.1184 11.2718C18.7418 11.1568 19.3837 11.0971 20.021 11.0971C21.0955 11.0971 22.1607 11.258 23.1794 11.5798C23.7609 11.7636 24.2214 12.1544 24.6633 12.5359C25.1843 12.9818 25.6774 13.4047 26.3054 13.4047C26.3426 13.4047 26.3798 13.4139 26.4124 13.4323C27.2869 13.9518 28.0823 14.7654 28.78 15.8549C29.4964 16.9766 29.9988 18.2545 30.2314 19.5601C30.3337 20.1255 30.1244 20.6128 29.9197 21.0817C29.6173 21.785 29.3801 22.3366 30.143 23.0722C30.1942 23.1227 30.2174 23.1917 30.2035 23.256C29.8546 25.0672 27.9939 29.6228 25.6774 29.6228ZM25.7983 26.7405C27.0403 25.3155 27.7241 23.3894 27.7241 21.3253C27.7241 19.2613 27.0403 17.3352 25.7983 15.9101C24.4028 14.3058 22.4119 13.4599 20.0349 13.4599C17.6579 13.4599 15.6624 14.3058 14.2715 15.9101C13.0295 17.3352 12.3457 19.2613 12.3457 21.3253C12.3457 23.3894 13.0295 25.3155 14.2715 26.7405C15.667 28.3449 17.6579 29.1907 20.0349 29.1907C22.4119 29.1907 24.4075 28.3449 25.7983 26.7405Z"
    fill="#181930"
  />
</svg>