<svg xmlns="http://www.w3.org/2000/svg" x="0px" y="0px"
	viewBox="0 0 800.6 687.9">
	<g>
		<path id="Person" style="fill:#0B1A23;stroke:#FFFFFF;stroke-width:2;stroke-miterlimit:10;"
			d="M795.1,503.4l-5.9,4.4
		c2.5-4.2,4.7-8.1,7.6-12.1c-2-1.2-3.2-3.4-5.9-3c-3.9,0.7-6.4,5.7-8.4,8.9c0.7-3,1.5-5.9,2.2-8.9c-3.2,0-5.7-0.7-8.1,2
		c-4.7,5.7-3.7,15.3-3.9,22.2c-2.2,2.2-4.7,4.4-6.9,6.4c-0.5-5.9-0.2-12.1-0.5-18c-0.2-2.7,0-5.4-2.5-6.9
		c-4.2-3.7-8.6-6.9-11.8-12.1c-1.5-2.7-2-6.2-3-9.1c-1.5,0-3,0.2-4.4,0.5c-3.4,3.2-5.7,7.6-9.1,10.8c-10.3,9.6-21.9,16.8-36.2,18
		c-8.9,0-18.2-4.4-26.1-8.1c-20.2-10.6-39.4-23.9-59.1-34.7c-9.9-5.7-19.5-10.6-28.8-17c-1.7-1.2-3-2.5-3.4-4.7
		c-6.9-20.9-11.8-42.4-16.3-64c-2.5-15-5.7-29.6-7.4-44.8c-0.7-9.1-0.5-18.2-0.7-27.1c-0.7-8.9,0-17.2-1.7-26.1
		c-2.2-11.8-6.4-22.9-15.3-31c-11.1-11.1-25.1-14.8-40.2-18.7c-11.8-3.2-24.4-6.2-35.5-11.8c-10.3-5.2-18.5-15-22.4-25.9
		c-3.9-10.6-4.7-21.7-4.4-32.8c3.7-4.2,7.4-8.4,9.9-13.5c2-4.4,3.2-9.4,4.7-14c0.2,0.2,0.2,0.5,0.5,0.7c0.5,0.7,1.5,1,2.2,0.7
		c2-0.7,4.2-1.5,5.7-3c3-3.4,4.7-8.4,5.9-12.8c2.2-7.4,3.9-14.5,2.5-21.9c-0.5-2-2-3.4-3.9-3.9c-1.2-0.2-2.7-0.2-3.9,0.5
		c-1.7,1-3,3-4.4,4.4c0.5-8.4,0.7-16.8,0.7-25.1c0.2-11.3-1.5-23.9-7.9-33.5c-6.2-9.6-17-16-27.8-19c-16.5-3.4-34.5-0.7-47.3,10.8
		c-8.4,7.4-13.1,17.7-14.3,28.8c-1.7,12.8-0.2,24.9,0,37.7l-1.2-2.5c-0.5-0.5-1-1.2-1.2-2c-0.2-0.2-2.7-2-5.4-1
		c-1,0.2-1.7,0.7-2.2,1.2c-2.5,3.2-2.5,7.9-1.7,11.6c1.2,8.1,3.2,16.5,7.4,23.9c2.2,3.7,5.7,6.7,10.1,4.9c1.2,5.4,2.2,10.6,4.9,15.5
		c2.2,4.4,5.4,7.6,8.6,11.1c0.2,13.1-0.5,27.1-6.4,39.2c-5.9,10.8-16.5,18.5-27.8,22.7c-9.4,3.4-18.7,6.2-28.3,8.4
		c-10.6,2.5-20.4,5.2-29.8,10.8c-11.6,7.1-20.2,18.2-23.6,31.3c-3.9,15.3-3.2,32.3-3.4,48c0,20.7-4.4,40.2-8.1,60.4
		c-4.7,21.2-8.4,41.6-16.3,61.8c-1,2.7-3.9,4.2-6.2,5.7c-8.6,5.2-17.7,9.6-26.4,14.8c-15.5,8.6-30.3,18.5-45.6,27.1
		c-11.3,5.9-22.9,12.6-35.2,16.3c-7.6,2.5-15,0.5-22.2-2.2c-10.1-3.9-20.4-8.9-29.1-15.8c-4.7-3.4-7.6-8.9-12.3-12.3
		c-1.7,1.5-3.2,2.7-3.9,5.2C52.1,488.4,44,494,38.6,499c-1.2,7.9-1,16-1.2,24.1c-2.7-2.5-5.4-4.9-8.1-7.1c-0.5-7.4,1-16.8-4.4-22.9
		c-2-2.7-5.2-0.7-7.6-0.2c1,3,2,5.9,2.7,8.9c-2.5-3-5.2-7.4-8.4-9.1c-3-1.2-4.2,1-6.4,2.7c3,4.2,5.4,8.9,7.6,13.3
		c-1.7-1.7-3.2-3.9-5.2-5.2c-2.5-0.7-4.4,2.2-6.2,3.7c5.4,6.9,10.3,13.8,16.5,20.2c7.6,8.9,17.2,15.8,27.8,20.4
		c6.2,2.7,12.6,5.4,19.5,3.9c12.1-2.7,24.1-5.4,36-9.1c13.3-3.7,26.9-8.4,40.4-10.8c15.3-3,30.5-6.2,45.8-9.1
		c20.2-4.4,40.2-10.6,59.4-18c9.6-3.7,19-8.4,26.1-16c8.6-8.6,13.1-19.7,15.8-31.5c4.9-20.2,8.6-40.4,12.8-60.8
		c2.7-13.5,5.2-27.1,7.1-40.6c5.4,26.4,13.3,51.7,20.4,77.6c3.4,15,7.6,29.6,7.1,45.1c0,9.1-2.5,17.5-5.2,26.1
		c-3.9,13.1-10.1,25.4-15.5,37.7c-4.4,9.6-7.9,19.2-11.8,29.1c-15-4.2-29.6-9.9-44.8-13.5c-27.8-7.9-56.9-15.3-86-18.5
		c-17-1.2-36.5-2.5-52.7,3.4c-10.8,3.7-20.9,11.1-27.1,20.9c-5.2,8.1-6.2,18.7-4.4,28.1c1.5,9.6,6.7,18.2,13.1,25.1
		c6.7,7.1,15.5,12.6,24.4,16.8c22.7,10.3,46.1,16.5,70.2,21.4c6.9,1.5,13.5,3.2,20.7,3.4v1.5c-7.1,0-13.8,1-20.9,1.7
		c-25.4,1.2-50.7,0.5-76.1,1c0,1.2,0.2,2.5,0.2,3.4c14.8,0,29.3,0.2,44.1,0.2c2,0,3.4,1,4.9,2c-2.7,0.2-5.7,0.2-8.4,0.2
		c-26.1,0-52.5,0.2-78.6,0.2c-15.3,0.5-30.8,0-46.3,0.5c0,2,0,1,0,2.7c15.8,0.2,31.5,0.2,47.5,0.5c23.6,0.2,47.3-0.5,70.9,0.2
		c0,1.5,0,0.7,0,2.5c-18.5,0.7-37,0.2-55.4,0.7c0,1,0,2.2,0,3.2c14.8,0,29.6,0.2,44.1,0c4.4,0,8.6,0.2,12.8,0.5
		c11.1,0.5,22.4-0.2,33.5,0.7c-4.4,0.5-9.1,1.7-13.5,2c-22.4-0.2-44.6,0.2-67,0.2c-2.5,0.2-4.9-0.5-6.4,1.7c0.7,1.2,1.7,2,2.7,1.7
		c18.5,0.2,37,0,55.2,0.5c8.6,0.7,17.2-0.7,25.9,0.2c32.8,0.5,65.8,0,98.5,0c94.3,0.2,188.7,0,283,0c20.2,0,40.6,0.2,61.1,0
		c5.9-0.2,11.6,0.5,17.5-0.2c14.8-1,29.6,0.2,44.1-0.7v-3c-19-0.5-37.9,0.2-56.9-1.2c-16-0.2-32,0-48-0.7c-1,0-2-0.2-2.7-0.5
		c4.9-0.7,9.9,0,14.8,0c27.3-0.5,54.9,0,82.3-1c14.8,0,29.6-0.2,44.3-0.2c0-1,0-2,0-3c-22.4-1-44.8,0.5-67-0.5
		c1.7-1.2,2.5-2.7,4.9-2.7c10.8,0.2,21.7-0.2,32.5,0c17.7,0,35.5-0.7,53.5-0.5c3.4-0.5,7.4,1.5,8.6-2.7c-6.4-1-12.6-0.2-19.2-0.2
		c-38.9,0-78.6-0.7-117.8-0.7l-0.2-2.2c23.6,0,47.5,0,71.2,0c0-1.2,0-2.5,0-3.7c-21.7,0-43.1,0-64.8-0.2
		c-10.6-0.2-20.9-2.5-31.5-2.5v-2c27.8-4.4,55.7-11.6,81.8-22.2c11.3-4.4,22.2-11.1,30.5-20c9.9-10.6,15-25.9,12.3-40.2
		c-1.5-8.9-5.9-17-12.6-23.2c-9.6-8.9-23.4-13.1-36-14.5c-18.7-1.7-36.7,0.7-55.2,3.9c-26.6,4.9-52.7,11.6-78.6,19.5
		c-9.1,2.5-18,6.2-27.1,9.1c-4.9-19-14-35.5-21.7-53.5c-5.2-13.5-10.8-29.1-10.1-43.8c0.7-15.5,4.4-30.1,8.6-44.8
		c3.2-13.1,7.4-25.9,10.6-38.9c3.2-12.3,6.9-24.4,8.9-37c1,8.9,2,17.7,3.7,26.4c2.5,13.1,4.2,25.9,7.4,38.9
		c3.4,15.8,6.2,31.8,10.8,47.1c3.4,11.3,9.4,21.4,18.7,28.8c11.6,9.1,27.6,14,41.4,18.5c21.7,7.4,43.8,11.6,66,16.5
		c12.8,2.7,25.1,3.9,37.4,8.1c15.8,4.7,31.5,11.1,47.5,14.5c6.7,2,14.3-2.7,20.2-5.7c10.1-4.9,18.2-11.8,25.4-20.2
		c5.2-6.2,11.1-12.6,14.8-19.7C798.3,505.4,796.8,504.1,795.1,503.4z M65.2,517.4c-3.7,4.9-10.8,6.4-16.5,3.7
		c-2-5.4-1.7-11.8-2-17.5c3.2-3.2,6.2-6.2,8.6-9.9c0.7-1,1.2-2,2-2.7c3,3.9,6.7,7.4,9.1,11.6C69.4,507.3,68.4,513.3,65.2,517.4z
		 M753,521.6c-3.4,0.2-7.6,1.2-11.1-0.2c-4.7-2.7-7.1-7.9-6.9-13.1c-0.2-6.2,5.7-11.3,8.9-16.5c2.5,4.7,5.9,7.9,9.4,11.6
		C753.5,509.3,753.2,515.5,753,521.6z" />
		<g id="Chakras">
			<g>
				<g>
					<g>
						<path style="fill:#F99A98;"
							d="M406.9,606.4c-17-2.5-4.4,9.1,0,17c4.7-2.5,7.9-11.6,10.8-16.3
						C415,605.9,410.3,606.9,406.9,606.4L406.9,606.4z M408.1,608.1c13.5-1.7,2,5.9-0.7,12.8C403.7,612.8,393.6,606.4,408.1,608.1z"
						/>
					</g>
					<g>
						<path style="fill:#F99A98;"
							d="M396.8,592.8c-2.5,1-8.9-0.2-9.4,1c0.5,6.2-2.5,13.5,2.2,18.7c-1.5,4.2-3.7,10.1-2.2,15.5
						c-2.2,8.9,15,6.7,20.2,2.7c4.9,4.9,13.3,2.2,19.2,2.7c1.7-3.4,2.5-14.8-1.2-19.5c-0.5-2.2,3.2-5.4,2.7-8.4
						c0.2-3.9-0.7-9.1-0.5-12.3c-6.4,1-14.3-2.5-19.5,2.2C405.1,594.8,400.7,591.8,396.8,592.8L396.8,592.8z M387.9,593.8
						C387.9,593.8,387.6,593.6,387.9,593.8C387.9,593.6,387.9,593.6,387.9,593.8z M390.6,593.8C390.6,594.1,390.4,594.1,390.6,593.8
						C390.4,593.8,390.6,593.8,390.6,593.8z M403.2,594.1L403.2,594.1L403.2,594.1z M403.4,594.3L403.4,594.3
						C403.2,594.1,403.4,594.1,403.4,594.3z M403.7,594.3C403.4,594.3,403.4,594.3,403.7,594.3C403.4,594.3,403.7,594.3,403.7,594.3
						z M388.6,594.5L388.6,594.5L388.6,594.5z M395.5,594.8L395.5,594.8C395.5,594.8,395.8,594.8,395.5,594.8L395.5,594.8z
						 M425.8,595c-0.7,8.6,1.2,24.1-6.4,7.9C402.9,592.8,413.8,596,425.8,595z M389.6,595c13.1,0.7,21.2-1.7,5.9,7.9
						C388.1,620.4,388.9,601.7,389.6,595z M393.3,595C393.3,595,393.1,595,393.3,595C393.1,595,393.3,595,393.3,595L393.3,595z
						 M401.2,595C400.9,595,400.9,595,401.2,595C400.9,595,401.2,595,401.2,595L401.2,595z M401.4,595
						C401.2,595,401.2,595,401.4,595C401.2,595,401.4,595,401.4,595L401.4,595z M425.8,595.5C425.8,595.5,425.8,595.3,425.8,595.5
						L425.8,595.5z M404.9,595.8C405.1,596,404.9,595.8,404.9,595.8L404.9,595.8z M409.6,596L409.6,596
						C409.6,596,409.8,595.8,409.6,596z M405.4,596C405.4,596,405.1,596,405.4,596C405.4,595.8,405.4,596,405.4,596z M406.1,596.3
						L406.1,596.3L406.1,596.3z M426.8,596.3C426.8,596.5,426.8,596.3,426.8,596.3L426.8,596.3z M405.9,596.5
						C405.9,596.8,405.6,596.5,405.9,596.5L405.9,596.5z M406.9,597.3L406.9,597.3C406.9,597,406.9,597.3,406.9,597.3z M408.1,597.3
						L408.1,597.3C407.8,597.3,408.1,597,408.1,597.3z M425.8,599C425.8,599.2,425.8,599,425.8,599L425.8,599z M410.8,599.2
						L410.8,599.2C410.6,599.2,411,599.2,410.8,599.2L410.8,599.2z M404.1,599.2C404.1,599.2,403.9,599.2,404.1,599.2L404.1,599.2z
						 M406.9,600L406.9,600L406.9,600z M408.1,600C408.1,600,407.8,600,408.1,600C407.8,600,408.1,600,408.1,600z M400,600.2
						C399.7,600.5,400,600.2,400,600.2L400,600.2z M415,600.5L415,600.5C415,600.2,415,600.5,415,600.5z M411.5,600.5
						c0,0-0.2,0-0.2-0.2L411.5,600.5z M403.4,600.5c0,0-0.2,0-0.2,0.2C403.4,600.5,403.4,600.2,403.4,600.5z M403.2,600.5
						C403.4,600.5,402.9,600.7,403.2,600.5C402.9,600.5,402.9,600.5,403.2,600.5z M412,600.5C412,600.7,411.8,600.5,412,600.5
						C411.8,600.5,411.8,600.5,412,600.5z M409.3,600.7c16.8,2.5,12.1,28.3-4.2,25.4C389.1,622.9,393.3,598.2,409.3,600.7z
						 M387.9,600.7C387.9,601,387.9,600.7,387.9,600.7L387.9,600.7z M400.5,601C400.2,601,400.2,601,400.5,601L400.5,601z
						 M414.7,601C414.5,601,414.5,601,414.7,601C414.5,601,414.7,601,414.7,601L414.7,601z M426.1,601.4L426.1,601.4L426.1,601.4z
						 M398.7,602.7L398.7,602.7C398.7,602.9,399,602.7,398.7,602.7z M416.2,602.9C416.2,602.9,416,602.7,416.2,602.9
						C416,602.7,416,602.7,416.2,602.9z M416.2,602.9C416.5,603.2,416.2,602.9,416.2,602.9L416.2,602.9z M398.5,603.2
						C398.5,603.4,398.5,602.9,398.5,603.2C398.7,602.9,398.7,603.2,398.5,603.2z M416.5,603.2C416.5,603.2,416.5,603.4,416.5,603.2
						C416.2,602.9,416.2,602.9,416.5,603.2z M398,603.2C398,603.2,397.7,603.2,398,603.2C397.7,603.2,398,603.2,398,603.2z
						 M417.2,603.2C417.2,603.2,417,603.2,417.2,603.2C417,603.2,417,603.2,417.2,603.2z M397,603.4
						C396.8,603.4,396.8,603.2,397,603.4C397,603.2,397,603.2,397,603.4z M417.9,603.4L417.9,603.4
						C417.9,603.2,417.9,603.4,417.9,603.4z M398.2,603.4C398.2,603.4,398,603.4,398.2,603.4C398.5,603.2,398.5,603.2,398.2,603.4z
						 M416.7,603.4c0,0.2-0.2,0-0.2-0.2C416.5,603.4,416.7,603.4,416.7,603.4z M396.3,606.1C396.3,606.1,396,606.1,396.3,606.1
						C396.3,606.1,396.3,605.9,396.3,606.1z M418.7,606.1C418.9,606.4,418.7,606.1,418.7,606.1L418.7,606.1z M388.6,606.9
						L388.6,606.9L388.6,606.9z M425.8,606.9C425.8,607.1,425.8,606.9,425.8,606.9L425.8,606.9z M425.8,607.1
						C425.6,607.4,425.6,607.1,425.8,607.1L425.8,607.1z M389.1,607.1C389.1,607.4,389.1,607.1,389.1,607.1L389.1,607.1z
						 M388.4,609.1C388.1,609.1,388.4,609.1,388.4,609.1L388.4,609.1z M426.6,609.1L426.6,609.1L426.6,609.1z M426.6,609.3
						C426.6,609.3,426.6,609.1,426.6,609.3C426.6,609.1,426.6,609.3,426.6,609.3z M388.4,609.3L388.4,609.3L388.4,609.3z
						 M426.6,609.3C426.6,609.6,426.6,609.3,426.6,609.3L426.6,609.3z M389.1,611.1C389.1,611.3,389.1,611.1,389.1,611.1
						L389.1,611.1z M390.1,611.1C390.1,611.3,389.9,611.1,390.1,611.1L390.1,611.1z M424.8,611.1
						C424.8,611.3,424.8,611.3,424.8,611.1C424.8,611.3,424.8,611.1,424.8,611.1z M390.4,612C390.6,612.3,390.4,612,390.4,612
						C390.4,611.8,390.4,612,390.4,612z M391.3,612.8C391.6,613,391.3,612.8,391.3,612.8C391.3,612.5,391.3,612.5,391.3,612.8z
						 M423.6,612.8L423.6,612.8C423.4,613,423.6,612.5,423.6,612.8z M391.3,614L391.3,614C391.3,613.8,391.3,613.8,391.3,614z
						 M423.6,614C423.6,614,423.4,613.8,423.6,614L423.6,614z M424.6,614.7C424.6,614.7,424.3,614.5,424.6,614.7
						C424.3,614.5,424.6,614.5,424.6,614.7z M391.8,615.5c1,6.9,6.9,12.8,13.8,13.5c-3.9,4.2-11.6,1.5-16.5,2.7
						C390.1,627.3,387.4,617.7,391.8,615.5z M423.6,615.7c7.4,12.3-2.5,21.4-14.3,13.5C417,629,422.1,620.2,423.6,615.7z
						 M390.1,615.5L390.1,615.5L390.1,615.5z M424.8,615.5L424.8,615.5L424.8,615.5z M388.4,617.2
						C388.4,617.5,388.4,617.2,388.4,617.2L388.4,617.2z M426.6,617.2C426.6,617.5,426.6,617.2,426.6,617.2L426.6,617.2z
						 M388.4,617.5C388.4,617.5,388.4,617.2,388.4,617.5L388.4,617.5z M426.6,617.5C426.6,617.5,426.6,617.2,426.6,617.5
						L426.6,617.5z M388.4,617.7C388.1,617.7,388.4,617.5,388.4,617.7C388.4,617.5,388.4,617.5,388.4,617.7z M389.1,619.4
						C389.1,619.7,389.1,619.4,389.1,619.4L389.1,619.4z M425.8,619.4C425.6,619.7,425.6,619.4,425.8,619.4L425.8,619.4z
						 M389.1,619.7C389.1,619.9,389.1,619.7,389.1,619.7L389.1,619.7z M425.8,619.7C425.8,619.9,425.8,619.7,425.8,619.7
						L425.8,619.7z M396.3,620.4C396.3,620.7,396,620.4,396.3,620.4C396,620.4,396.3,620.4,396.3,620.4z M418.7,620.4L418.7,620.4
						C418.4,620.7,418.7,620.4,418.7,620.4z M398.2,623.4L398.2,623.4C398.2,623.4,398,623.1,398.2,623.4z M416.7,623.1l-0.2,0.2
						C416.5,623.4,416.7,623.1,416.7,623.1z M397,623.4C397,623.4,396.8,623.4,397,623.4C396.8,623.1,397,623.1,397,623.4z
						 M417.9,623.4L417.9,623.4C417.9,623.4,417.9,623.1,417.9,623.4z M398.7,623.6C398.5,623.6,398.5,623.4,398.7,623.6
						C398.7,623.4,398.7,623.6,398.7,623.6z M416.5,623.6C416.2,623.9,416.2,623.4,416.5,623.6L416.5,623.6L416.5,623.6z M398,623.6
						C397.7,623.6,397.7,623.4,398,623.6C397.7,623.4,398,623.6,398,623.6z M417.2,623.6C417.2,623.6,417,623.6,417.2,623.6
						C417,623.6,417.2,623.4,417.2,623.6z M398.7,623.6C398.7,623.9,398.5,623.6,398.7,623.6C398.5,623.6,398.5,623.6,398.7,623.6z
						 M398.7,623.9C399,624.1,398.7,623.9,398.7,623.9L398.7,623.9z M388.9,625.3C388.9,625.3,388.9,625.1,388.9,625.3
						C388.9,625.1,388.9,625.1,388.9,625.3z M426.1,625.1C426.1,625.3,426.1,625.1,426.1,625.1L426.1,625.1z M400.5,625.6
						L400.5,625.6C400.2,625.6,400.2,625.3,400.5,625.6z M414.7,625.6c0,0-0.2,0-0.2,0.2C414.5,625.6,414.7,625.6,414.7,625.6z
						 M411.8,626.1h-0.2C411.8,626.1,412,626.1,411.8,626.1z M412.3,626.1L412.3,626.1C412,626.1,412.5,625.8,412.3,626.1
						L412.3,626.1z M403.2,626.1C403.2,626.3,402.7,626.1,403.2,626.1L403.2,626.1z M403.4,626.3c0,0-0.2,0-0.2-0.2
						C403.4,626.1,403.4,626.3,403.4,626.3z M411.5,626.1c0,0-0.2,0.2-0.2,0C411.3,626.3,411.5,626.1,411.5,626.1z M400,626.3
						L400,626.3C399.7,626.3,400,626.3,400,626.3z M415,626.3C415,626.3,414.7,626.3,415,626.3L415,626.3z M406.9,626.6
						C406.9,626.8,406.6,626.6,406.9,626.6L406.9,626.6z M408.1,626.6C408.1,626.6,407.8,626.8,408.1,626.6
						C407.8,626.6,408.1,626.6,408.1,626.6z M404.1,627.3C404.1,627.6,403.9,627.3,404.1,627.3L404.1,627.3z M410.8,627.3
						C410.8,627.6,410.8,627.6,410.8,627.3C410.8,627.3,411,627.3,410.8,627.3L410.8,627.3z M389.1,627.6
						C389.1,627.8,389.1,627.6,389.1,627.6L389.1,627.6z M425.8,627.6C425.8,627.8,425.8,627.6,425.8,627.6L425.8,627.6z
						 M406.9,629.5L406.9,629.5C406.9,629.5,407.1,629.3,406.9,629.5z M408.1,629.5L408.1,629.5
						C407.8,629.3,408.1,629.3,408.1,629.5z M407.8,630L407.8,630L407.8,630z M388.1,630.3C388.1,630.5,388.1,630.3,388.1,630.3
						L388.1,630.3z M426.8,630.3C426.8,630.5,426.8,630.3,426.8,630.3L426.8,630.3z M408.8,630.5
						C408.8,630.5,408.6,630.3,408.8,630.5C408.6,630.3,408.8,630.3,408.8,630.5z M405.4,630.8C405.4,630.8,405.1,630.8,405.4,630.8
						C405.1,630.8,405.4,630.5,405.4,630.8z M409.6,630.8C409.8,630.8,409.6,630.8,409.6,630.8C409.6,630.5,409.6,630.8,409.6,630.8
						z M389.1,631.3C389.1,631.3,389.1,631,389.1,631.3L389.1,631.3z M425.8,631.3C425.8,631.3,425.8,631,425.8,631.3L425.8,631.3z
						 M413.5,631.5L413.5,631.5C413.5,631.5,413.8,631.5,413.5,631.5L413.5,631.5z M419.4,631.7
						C419.4,631.7,419.2,631.7,419.4,631.7C419.2,631.7,419.4,631.7,419.4,631.7z M388.6,632L388.6,632
						C388.6,632.2,388.6,632,388.6,632z M426.3,632C426.3,632.2,426.1,632.2,426.3,632C426.1,632,426.3,632,426.3,632z M411.5,632.5
						C411.5,632.5,411.3,632.5,411.5,632.5C411.3,632.5,411.5,632.5,411.5,632.5z M411.5,632.5L411.5,632.5L411.5,632.5z
						 M411.8,632.5L411.8,632.5C411.5,632.5,411.8,632.5,411.8,632.5z M424.6,632.7C424.6,632.7,424.3,632.7,424.6,632.7
						C424.3,632.7,424.6,632.7,424.6,632.7z" />
					</g>
				</g>
			</g>
			<g>
				<g>
					<path style="fill:#FFCF81;"
						d="M415.2,527c6.4-10.3-10.3-19.7-15.8-8.9C394.3,528.3,409.8,536.7,415.2,527z M403.2,517.7
					c1.7-3.7,10.1-2.7,8.9,2C410.3,522.6,401.7,522.4,403.2,517.7z M414.2,525.3c-3.9,8.6-17,2-13.1-6.2c1,5.7,11.8,5.9,13.1,0
					C415,520.9,415,523.8,414.2,525.3z" />
					<path style="fill:#FFCF81;"
						d="M430.3,521.9c-9.1-8.4-6.4-3.2-6.2-15.3c-12.8-1.7-6.4,3.9-16.8-7.1c-7.9,8.9-4.7,7.4-16.3,6.7
					c1.7,17.5-1.5,6.4-6.2,17.2c8.4,7.4,6.7,4.2,6.2,15.3c11.3,2,7.4-3.9,16.5,7.4c7.9-8.9,4.7-7.4,16.5-6.9
					C421.9,523.1,426.1,531.7,430.3,521.9z M426.1,518.4L426.1,518.4L426.1,518.4z M423.6,516.9L423.6,516.9
					C423.6,516.9,423.4,516.9,423.6,516.9z M422.9,516.7C423.1,516.9,422.9,516.9,422.9,516.7C422.9,516.9,422.9,516.7,422.9,516.7z
					 M422.6,516C422.4,516.2,422.6,515.7,422.6,516C422.6,515.7,422.6,515.7,422.6,516z M422.9,515.2
					C422.9,515.5,422.9,515.5,422.9,515.2C422.9,515.5,422.9,515.2,422.9,515.2z M422.9,512.5C422.9,512.3,422.9,512.5,422.9,512.5
					L422.9,512.5z M423.1,511.5C423.1,511.5,423.1,511.3,423.1,511.5L423.1,511.5z M423.6,512.5L423.6,512.5L423.6,512.5z
					 M423.4,510.5L423.4,510.5C423.4,510.8,423.4,510.5,423.4,510.5z M423.4,510.8L423.4,510.8L423.4,510.8z M419.7,506.8
					L419.7,506.8L419.7,506.8z M418.7,507.1C418.9,507.1,418.9,507.1,418.7,507.1C418.9,507.1,418.7,507.1,418.7,507.1z
					 M417.5,506.6L417.5,506.6C417.2,506.8,417.5,506.6,417.5,506.6z M414.2,507.8C414.5,507.6,414.5,507.6,414.2,507.8
					C414.2,507.8,414,507.8,414.2,507.8z M414.5,510.1c3.2-3.4,11.3-4.9,8.1,2C421.4,519.4,416,512.8,414.5,510.1z M420.4,522.6
					C420.4,522.9,420.4,522.6,420.4,522.6L420.4,522.6z M419.9,522.6C419.9,522.9,419.9,522.9,419.9,522.6
					C419.7,522.6,419.9,522.4,419.9,522.6z M419.4,519.2C419.4,519.2,419.4,518.9,419.4,519.2C419.7,518.9,419.7,519.2,419.4,519.2z
					 M419.7,526.1C419.7,526.3,419.4,526.3,419.7,526.1L419.7,526.1z M419.2,519.9C419.2,519.9,419.2,519.7,419.2,519.9
					C419.4,519.7,419.2,519.9,419.2,519.9z M419.2,525.3L419.2,525.3C419.2,525.6,419.2,525.3,419.2,525.3z M419.2,520.6
					C419.2,520.4,419.2,520.6,419.2,520.6L419.2,520.6z M419.2,524.6C419.2,524.8,419.2,524.6,419.2,524.6L419.2,524.6z
					 M418.9,524.8L418.9,524.8C418.9,525.1,418.9,524.6,418.9,524.8z M418.9,520.4L418.9,520.4C418.9,520.4,418.9,520.6,418.9,520.4
					z M418.9,520.2C418.9,520.2,418.9,519.9,418.9,520.2C418.9,519.9,418.9,520.2,418.9,520.2z M418.9,525.1
					C418.9,525.1,418.9,525.3,418.9,525.1C418.9,525.3,418.9,524.8,418.9,525.1z M417.7,517.4C417.7,517.4,417.7,517.2,417.7,517.4
					C417.7,517.2,417.7,517.4,417.7,517.4z M417.2,516.5L417.2,516.5C417.2,516.5,417.5,516.5,417.2,516.5z M416,514
					C416,514,415.7,513.7,416,514C415.7,513.7,416,513.7,416,514z M415.5,514.2L415.5,514.2C415.5,514,415.5,514,415.5,514.2z
					 M415,513.5C415.2,513.7,415,513.5,415,513.5L415,513.5z M414,511.5C414.2,511.5,414,511.5,414,511.5L414,511.5z M405.1,502.9
					C405.1,502.9,404.9,502.9,405.1,502.9C404.9,502.9,405.1,502.7,405.1,502.9z M404.1,505.6c3.2-11.8,13.1,6.4,3.7,3.4
					C403.9,509.8,402.4,509.3,404.1,505.6z M403.4,504.1C403.4,503.9,403.4,504.1,403.4,504.1L403.4,504.1z M401.9,506.6
					C401.9,506.6,401.9,506.8,401.9,506.6C401.9,506.8,401.9,506.6,401.9,506.6z M401.9,507.3L401.9,507.3
					C401.9,507.3,401.7,507.6,401.9,507.3z M401.4,512L401.4,512L401.4,512z M401.2,511.5L401.2,511.5
					C401.4,511.5,400.9,511.5,401.2,511.5z M391.6,513C391.6,512.8,391.6,512.8,391.6,513C391.6,512.8,391.8,513,391.6,513z
					 M392.1,511.5C392.1,511.5,392.1,511.3,392.1,511.5L392.1,511.5z M392.3,515.2C392.3,515.2,392.3,515.5,392.3,515.2
					C392.3,515.5,392.3,515.5,392.3,515.2z M392.6,511.3c-2.5-6.2,3.4-4.4,7.1-2.5C402.4,511.3,392.8,520.2,392.6,511.3z
					 M400.2,513.5L400.2,513.5C400,513.7,400.2,513.5,400.2,513.5z M399.5,513.7C399.5,514,399.5,514,399.5,513.7
					C399.2,514,399.5,513.7,399.5,513.7z M398,516.5L398,516.5C397.7,516.5,398,516.5,398,516.5z M397.5,517.2
					C397.5,517.2,397.5,517.4,397.5,517.2C397.5,517.4,397.5,517.2,397.5,517.2z M396.3,524.8L396.3,524.8
					C396.3,525.1,396,524.6,396.3,524.8z M396.3,520.4C396.3,520.4,396.3,520.2,396.3,520.4C396.3,520.4,396.3,520.6,396.3,520.4z
					 M396.3,525.1C396.3,525.3,396.3,525.3,396.3,525.1C396.3,525.3,396.3,524.8,396.3,525.1z M396.3,520.2L396.3,520.2
					C396.3,520.2,396.3,519.7,396.3,520.2z M396,520.6C396,520.6,396,520.4,396,520.6L396,520.6z M396,519.9
					C396,519.7,396,519.9,396,519.9L396,519.9z M396,525.3C396,525.3,395.8,525.6,396,525.3L396,525.3z M395.8,526.1L395.8,526.1
					C395.8,526.3,395.5,526.1,395.8,526.1z M395.8,519.2C395.8,519.2,395.8,518.9,395.8,519.2C395.8,519.2,395.5,519.2,395.8,519.2z
					 M395.5,522.6L395.5,522.6C395.3,522.9,395.3,522.4,395.5,522.6z M394.8,522.6L394.8,522.6L394.8,522.6z M392.6,516
					C392.6,515.7,392.8,516,392.6,516C392.8,516,392.8,516,392.6,516z M392.3,516.7C392.6,516.7,392.3,516.9,392.3,516.7
					L392.3,516.7z M391.8,516.9L391.8,516.9C391.8,516.9,391.6,516.9,391.8,516.9z M389.1,518.4L389.1,518.4L389.1,518.4z
					 M387.9,519.9L387.9,519.9C387.6,520.2,387.9,519.9,387.9,519.9z M389.1,526.8L389.1,526.8L389.1,526.8z M391.6,528.3
					C391.6,528.3,391.8,528.3,391.6,528.3C391.8,528.3,391.8,528.3,391.6,528.3z M392.3,528.5C392.3,528.5,392.3,528.3,392.3,528.5
					C392.3,528.3,392.6,528.5,392.3,528.5z M392.3,526.8c-13.8-3.2,0.5-10.8,2-6.9C393.1,521.9,396.3,527.5,392.3,526.8z M392.8,529
					L392.8,529C392.6,529,392.8,528.8,392.8,529z M392.8,529.3C392.8,529,392.8,529.3,392.8,529.3L392.8,529.3z M392.3,529.8
					L392.3,529.8C392.6,529.8,392.3,530,392.3,529.8z M392.3,532.7C392.3,533,392.3,532.7,392.3,532.7L392.3,532.7z M392.1,533.7
					L392.1,533.7C392.1,533.9,392.1,533.7,392.1,533.7z M391.6,532.7L391.6,532.7L391.6,532.7z M391.6,535.9L391.6,535.9
					L391.6,535.9z M391.8,534.7C391.8,534.4,391.8,534.7,391.8,534.7L391.8,534.7z M395.5,538.4
					C395.5,538.4,395.8,538.4,395.5,538.4L395.5,538.4z M396.5,538.1C396.3,538.1,396.5,538.1,396.5,538.1L396.5,538.1z M398,538.6
					C397.7,538.6,397.7,538.6,398,538.6C397.7,538.6,398,538.4,398,538.6z M400.2,537.9C400.2,537.9,400.5,537.6,400.2,537.9
					C400.5,537.9,400.5,537.9,400.2,537.9z M400.9,537.4C400.7,537.6,400.7,537.6,400.9,537.4C400.9,537.4,401.2,537.4,400.9,537.4z
					 M400.7,535.2c-3.2,3.2-11.1,4.9-7.9-2C394,525.8,399.5,532.7,400.7,535.2z M397.5,527.8C397.5,527.8,397.5,528,397.5,527.8
					C397.5,528,397.5,527.8,397.5,527.8z M398,528.8C398,528.5,398,529,398,528.8L398,528.8z M399.5,531.2
					C399.2,531.2,399.2,531.2,399.5,531.2C399.5,531.2,399.5,531.5,399.5,531.2z M399.7,531L399.7,531
					C399.7,531.2,399.7,531.2,399.7,531z M400.2,531.5L400.2,531.5C400.2,531.7,400,531.5,400.2,531.5z M401.2,533.7L401.2,533.7
					L401.2,533.7z M411.8,537.9c-3.2,14.8-12.3-3-5.9-1.7C407.8,536.9,412.5,534.2,411.8,537.9z M411.8,541.1L411.8,541.1
					L411.8,541.1z M412.3,532.5c-13.8,6.4-22.4-16.5-7.6-20.4C417.2,508.3,424.1,527.3,412.3,532.5z M417.7,527.8
					C417.7,528,417.7,528,417.7,527.8C417.7,528,417.9,527.8,417.7,527.8z M417.5,528.8C417.5,528.8,417.2,528.8,417.5,528.8
					C417.2,529,417.5,528.5,417.5,528.8z M416,531.2C416,531.2,416,531.5,416,531.2C415.7,531.5,416,531.2,416,531.2z M413.3,538.4
					L413.3,538.4C413.3,538.4,413.3,538.6,413.3,538.4z M413.5,537.9C413.3,538.1,413.3,537.6,413.5,537.9
					C413.5,537.6,413.5,537.9,413.5,537.9z M413.8,533.2L413.8,533.2L413.8,533.2z M414,533.7L414,533.7
					C414,533.7,414.2,533.7,414,533.7z M423.6,532.2C423.6,532.5,423.6,532.5,423.6,532.2C423.4,532.2,423.4,532.2,423.6,532.2z
					 M423.1,533.7L423.1,533.7C423.1,533.9,423.1,533.7,423.1,533.7z M422.9,530C422.9,530,422.9,529.8,422.9,530
					C422.9,529.8,422.9,529.8,422.9,530z M423.1,536.2c0.7,3-1,2-3,1.7c-5.4-1-7.1-3.2-2.2-6.4C420.4,526.1,422.9,533,423.1,536.2z
					 M422.4,529.3L422.4,529.3C422.6,529.5,422.6,529.5,422.4,529.3z M422.9,528.5C422.6,528.5,423.1,528.3,422.9,528.5
					C423.1,528.3,422.9,528.5,422.9,528.5z M423.4,528.3C423.4,528.3,423.6,528.3,423.4,528.3C423.6,528.3,423.6,528.3,423.4,528.3z
					 M425.8,527C425.8,527,425.6,527,425.8,527C425.6,527,425.8,526.8,425.8,527z M426.1,526.8C426.1,526.8,426.1,526.6,426.1,526.8
					L426.1,526.8z M427.3,525.3C427.3,525.3,427.3,525.1,427.3,525.3L427.3,525.3z M429.8,522.6c-3,2.7-10.6,7.4-8.6,0
					C418.9,515,427.3,519.9,429.8,522.6z" />
				</g>
			</g>
			<g>
				<g>
					<g>
						<path style="fill:#FDFFAB;"
							d="M406.6,423.1c-19.2-2.2-4.4,8.9,0,18c4.9-2.7,8.4-12.3,11.6-17.2
						C415.2,422.4,410.1,423.3,406.6,423.1z M407.8,424.8c14.3-1.7,2.2,6.4-0.7,13.5C403.4,429.7,391.3,423.1,407.8,424.8z" />
					</g>
					<g>
						<path style="fill:#FDFFAB;"
							d="M407.6,405.6c-3.2,3-7.1,7.4-7.9,11.1c-13.1-3.4-17,3.9-7.4,13.3c-9.6,9.6-5.7,17,7.6,13.3
						c0,3.2,5.9,12.6,8.9,10.1c3-3,6.2-6.7,6.7-10.1c14,3.2,16.3-3.7,7.6-13.5c9.9-10.6,4.9-16.5-7.9-13.1
						C415.2,412.3,410.3,407.8,407.6,405.6z M407.8,406.8c3.7,3.9,9.4,12.8-0.2,10.1C397.5,420.1,404.1,409.3,407.8,406.8z
						 M400.7,417.2C400.7,417.4,400.5,417.2,400.7,417.2C400.5,416.9,400.7,417.2,400.7,417.2z M414.7,417.2
						C414.7,417.4,414.7,417.2,414.7,417.2C414.7,416.9,414.7,417.2,414.7,417.2z M394.3,417.4c9.1,0.2,1.2,4.9,0.5,9.9
						C393.6,431.5,380.5,415.2,394.3,417.4z M400.2,417.7C400.2,417.7,399.7,417.2,400.2,417.7C400,417.4,400.2,417.4,400.2,417.7z
						 M423.4,417.4c3.9,0.5,5.2,0.7,3.2,4.7c-2.2,5.9-5.9,8.1-7.6,1C413.8,418.7,417.9,416.9,423.4,417.4z M415.2,417.4
						C415.2,417.4,415.2,417.7,415.2,417.4C415.2,417.4,415.5,417.2,415.2,417.4z M401.7,418.2L401.7,418.2
						C401.7,418.2,401.9,417.9,401.7,418.2z M413.5,418.2L413.5,418.2C413.5,417.9,413.5,417.9,413.5,418.2z M410.6,418.4
						L410.6,418.4C410.3,418.2,410.6,418.2,410.6,418.4z M404.9,418.4C404.9,418.4,404.6,418.4,404.9,418.4
						C404.9,418.2,404.9,418.2,404.9,418.4z M411,418.9L411,418.9C410.8,418.9,410.8,418.7,411,418.9z M404.4,418.9L404.4,418.9
						C404.1,419.2,404.4,418.7,404.4,418.9z M407.1,418.9L407.1,418.9C407.1,418.9,407.4,418.9,407.1,418.9z M408.3,418.9
						C408.3,418.9,408.1,418.9,408.3,418.9C408.1,418.9,408.3,418.9,408.3,418.9z M400.2,418.9L400.2,418.9L400.2,418.9z M411,419.4
						C411,419.4,410.8,419.4,411,419.4C410.8,419.2,411,419.4,411,419.4z M404.4,419.4C404.4,419.4,404.1,419.4,404.4,419.4
						C404.1,419.4,404.4,419.2,404.4,419.4z M408.6,419.4c13.3,1,12.6,21.2-0.7,21.4C393.3,440.6,394.3,418.2,408.6,419.4z
						 M404.1,419.4C404.1,419.4,403.9,419.4,404.1,419.4C403.9,419.4,403.9,419.4,404.1,419.4z M411.3,419.4
						C411.3,419.4,411,419.4,411.3,419.4L411.3,419.4z M400.5,421.4L400.5,421.4C400.2,421.4,400.5,421.1,400.5,421.4z M414.7,421.4
						C415,421.4,414.7,421.1,414.7,421.4C414.7,421.1,414.7,421.4,414.7,421.4z M415,421.4C415,421.6,415,421.4,415,421.4L415,421.4
						z M400.2,421.6L400.2,421.6C400.5,421.4,400.5,421.6,400.2,421.6z M415,421.6C415,421.6,415.2,421.9,415,421.6
						C414.7,421.6,415,421.4,415,421.6z M399.7,421.6L399.7,421.6C399.5,421.6,399.7,421.6,399.7,421.6z M415.7,421.6
						C415.7,421.6,415.5,421.6,415.7,421.6L415.7,421.6z M399,421.9C398.7,421.9,399,421.6,399,421.9C399,421.6,399,421.6,399,421.9
						z M400,421.9L400,421.9C400.2,421.6,400.2,421.6,400,421.9z M415.2,421.9L415.2,421.9C415.2,421.6,415.2,421.9,415.2,421.9z
						 M398.2,424.1L398.2,424.1C398.2,424.1,398.5,423.8,398.2,424.1z M417,424.1C417.2,424.3,417,424.1,417,424.1L417,424.1z
						 M397.7,424.8C397.7,425.1,397.7,425.1,397.7,424.8C397.7,424.8,398,424.8,397.7,424.8z M417.5,424.8
						C417.5,425.1,417.5,424.8,417.5,424.8L417.5,424.8z M396,426.5C396,426.8,396,426.8,396,426.5C396,426.5,396.3,426.5,396,426.5
						z M419.2,426.5C419.2,426.8,419.2,426.8,419.2,426.5L419.2,426.5z M396.3,427.3C396.3,427.5,396.3,427.3,396.3,427.3
						L396.3,427.3z M418.9,427.3C418.9,427.5,418.9,427.3,418.9,427.3L418.9,427.3z M396.8,427.5
						C396.8,427.8,396.8,427.8,396.8,427.5C396.8,427.5,396.8,427.3,396.8,427.5z M418.7,427.5C418.7,427.8,418.4,427.5,418.7,427.5
						L418.7,427.5z M396.8,428C396.5,428,396.5,427.8,396.8,428C396.8,427.8,396.8,427.8,396.8,428z M418.7,427.8
						C418.7,428,418.4,427.8,418.7,427.8L418.7,427.8z M391.1,428C391.1,428,390.8,428,391.1,428L391.1,428z M424.3,428L424.3,428
						C424.1,428,424.3,428,424.3,428z M396.5,428L396.5,428L396.5,428z M418.7,428C418.7,428.3,418.7,428,418.7,428L418.7,428z
						 M420.9,429.3L420.9,429.3C420.9,429.3,420.9,429,420.9,429.3z M394.5,429.3C394.3,429.3,394.3,429,394.5,429.3
						C394.3,429.3,394.5,429.3,394.5,429.3z M422.4,429.5l-0.2,0.2C422.1,429.7,422.6,429.5,422.4,429.5z M393.1,429.7
						C393.3,429.7,393.1,429.7,393.1,429.7C392.8,429.5,392.8,429.5,393.1,429.7z M393.1,430.2l-0.2,0.2L393.1,430.2z M422.4,430.2
						C422.6,430.5,422.1,430.2,422.4,430.2C422.1,430.2,422.1,430.2,422.4,430.2z M394.3,431L394.3,431
						C394.5,431,394.5,431,394.3,431z M420.9,431C420.9,431,420.9,430.7,420.9,431L420.9,431z M394.5,432c0.5,5.7,9.4,10.8-1.2,10.8
						c-2,0-4.2-0.7-6.2-1C388.6,438.4,390.4,432,394.5,432z M421.1,431.7c9.6,5.7,7.6,14.5-4.4,9.6c-2.2-1,1-2.2,1.5-3.4
						C419.7,436.6,419.9,432.9,421.1,431.7z M418.7,432L418.7,432L418.7,432z M391.1,432L391.1,432C390.8,432.2,391.1,432,391.1,432
						z M424.3,432C424.3,432.2,424.1,432,424.3,432C424.1,432,424.3,432,424.3,432z M396.8,432.2
						C396.8,432.2,396.5,432.2,396.8,432.2C396.5,432,396.8,432.2,396.8,432.2z M418.7,432.2L418.7,432.2
						C418.4,432.2,418.7,432,418.7,432.2z M418.7,432.5L418.7,432.5C418.4,432.5,418.7,432.2,418.7,432.5z M396.8,432.5
						C396.8,432.5,396.8,432.7,396.8,432.5C396.8,432.5,396.8,432.2,396.8,432.5z M396.3,432.7C396.3,432.9,396.3,432.5,396.3,432.7
						L396.3,432.7z M418.9,432.7C418.9,432.7,418.9,432.5,418.9,432.7L418.9,432.7z M396,433.4C396,433.7,396,433.2,396,433.4
						L396,433.4z M419.2,433.4C419.2,433.7,419.2,433.2,419.2,433.4L419.2,433.4z M397.7,435.2C398,435.2,397.7,435.2,397.7,435.2
						L397.7,435.2z M417.5,435.2L417.5,435.2C417.5,435.2,417.5,434.9,417.5,435.2z M398.2,435.9
						C398.5,436.1,398.2,435.9,398.2,435.9L398.2,435.9z M417,435.9L417,435.9C417,436.1,417,435.9,417,435.9z M400,438.4
						C400.2,438.4,400.2,438.4,400,438.4C400,438.4,400,438.1,400,438.4z M415.2,438.1C415.2,438.4,415.2,438.4,415.2,438.1
						C415.2,438.4,415.2,438.1,415.2,438.1z M399,438.4C399,438.4,398.7,438.4,399,438.4C398.7,438.1,399,438.1,399,438.4z
						 M416.5,438.4L416.5,438.4C416.2,438.4,416.5,438.1,416.5,438.4z M400.5,438.6C400.2,438.6,400.2,438.4,400.5,438.6
						C400.2,438.4,400.5,438.6,400.5,438.6z M415,438.6C415,438.6,415,438.4,415,438.6C415,438.4,415,438.6,415,438.6z M399.7,438.6
						C399.7,438.6,399.5,438.4,399.7,438.6C399.7,438.4,399.7,438.4,399.7,438.6z M415.7,438.4C415.7,438.4,415.7,438.6,415.7,438.4
						C415.5,438.6,415.7,438.4,415.7,438.4z M400.5,438.6C400.5,438.9,400.2,438.6,400.5,438.6C400.2,438.6,400.2,438.6,400.5,438.6
						z M400.5,438.9C400.5,438.9,400.5,438.6,400.5,438.9C400.5,438.6,400.5,438.6,400.5,438.9z M411.3,440.6L411.3,440.6
						C411.3,440.6,411.5,440.6,411.3,440.6z M411.8,440.6C411.5,440.6,411.5,440.6,411.8,440.6C411.5,440.6,411.8,440.6,411.8,440.6
						z M404.1,440.6C404.1,440.8,403.7,440.6,404.1,440.6C403.9,440.6,404.1,440.6,404.1,440.6z M404.4,440.8
						C404.4,440.8,404.1,440.6,404.4,440.8C404.1,440.6,404.4,440.8,404.4,440.8z M411,440.6C411,440.6,411,440.8,411,440.6
						C410.8,440.8,411,440.6,411,440.6z M404.4,441.1C404.4,441.3,404.1,441.1,404.4,441.1L404.4,441.1z M407.1,441.1L407.1,441.1
						C407.1,441.1,407.4,441.1,407.1,441.1z M408.3,441.1C408.3,441.1,408.1,441.1,408.3,441.1C408.1,441.1,408.3,441.1,408.3,441.1
						z M411,441.1C411,441.3,410.8,441.1,411,441.1L411,441.1z M404.9,441.8C404.9,441.8,404.6,441.8,404.9,441.8
						C404.9,441.6,404.9,441.8,404.9,441.8z M410.6,441.8C410.6,441.8,410.3,441.8,410.6,441.8C410.3,441.8,410.6,441.6,410.6,441.8
						z M401.7,442.1C401.9,442.1,401.7,441.8,401.7,442.1C401.7,441.8,401.7,442.1,401.7,442.1z M413.5,441.8
						C413.5,442.1,413.5,442.1,413.5,441.8C413.5,442.1,413.5,441.8,413.5,441.8z M403.7,442.6c10.1,1.2,13.5-2,4.7,10.1
						C406.1,454.4,399.2,442.6,403.7,442.6z M400.2,442.6C400,442.6,400,442.6,400.2,442.6C400,442.6,400.2,442.3,400.2,442.6z
						 M415.2,442.6C415.5,442.8,415.2,442.6,415.2,442.6L415.2,442.6z M400.7,443C400.5,443.3,400.5,442.8,400.7,443
						C400.7,442.6,400.7,443,400.7,443z M414.7,443C414.7,443,414.7,442.8,414.7,443C414.7,442.6,414.7,442.8,414.7,443z
						 M409.8,451.9L409.8,451.9C409.6,451.9,409.8,451.7,409.8,451.9z" />
					</g>
				</g>
			</g>
			<g>
				<path style="fill:#DBFFAB;"
					d="M433,317.4c-8.4-11.3-0.5-7.9-0.7-16.5c-15.5-3.2-0.5-18-18.7-10.6c-9.1-16.8-6.7,4.7-21.7-2.2
				c-1.2,9.6-0.2,9.6-9.9,13.3c8.6,13.3,1,7.1,1,17.2c15.5,3.2,0.7,18.7,18,10.6c10.8,16.8,6.4-4.2,21.2,2.2c3.4,0.2,1-8.9,2.2-9.9
				C427.1,321.6,432.5,319.4,433,317.4z M429,311.5C429,311.7,428.8,311.5,429,311.5L429,311.5z M424.6,300.2
				c6.2,0,10.1,1.7,3.9,6.2c-5.2,5.2-3.9-0.7-6.4-4.4C420.9,300.7,422.9,300.2,424.6,300.2z M423.1,309.8
				C423.4,309.8,423.4,309.8,423.1,309.8C423.1,310,423.1,309.5,423.1,309.8z M422.4,309.8C422.4,310,422.4,309.5,422.4,309.8
				C422.4,309.5,422.4,309.8,422.4,309.8z M422.1,305.6C422.1,305.6,422.1,305.3,422.1,305.6C422.1,305.3,422.1,305.6,422.1,305.6z
				 M421.9,306.6C421.9,306.6,421.9,306.3,421.9,306.6C421.9,306.3,421.9,306.6,421.9,306.6z M421.6,307.3
				C421.6,307.1,421.6,307.3,421.6,307.3L421.6,307.3z M414,294c7.1-8.6,12.3-3,6.7,5.2C419.4,298.2,415,295.5,414,294z
				 M421.4,307.1L421.4,307.1C421.4,307.3,421.4,307.3,421.4,307.1z M421.4,306.8C421.4,306.8,421.4,306.6,421.4,306.8
				C421.4,306.6,421.4,306.8,421.4,306.8z M419.2,312.5c-2.2-2-0.7-5.2,1-7.1C421.1,307.1,421.4,316.7,419.2,312.5z M408.1,320.6
				c-0.7,0.2-1.5-2.5-2.5-3.7C409.8,316.9,410.6,316.9,408.1,320.6z M408.6,314.9c-8.4,2-9.4-11.1-1.2-10.6
				C415.5,302.4,416.7,315.7,408.6,314.9z M395.5,314.2c-1-2.5-1-6.7,0-9.1C398,308.1,398.2,311.3,395.5,314.2z M397,304.6h3.4
				C401.2,306.8,398.2,308.1,397,304.6z M397.5,314.2c2.5-4.9,4.9,2.7-0.5,0.7C397,314.7,397.3,314.5,397.5,314.2z M407.8,298.7
				c0.7-0.2,1.5,2.5,2.5,3.7C405.9,302.4,405.1,302.4,407.8,298.7z M414.7,304.6c1,0,4.2,0,3.9,0C417,307.6,416.2,308.1,414.7,304.6
				z M416.5,311.7c1,1.5,1.7,2.2,2.2,3.2C415,314.9,414,315.2,416.5,311.7z M418.7,299.4C418.7,299.7,418.4,299.4,418.7,299.4
				L418.7,299.4z M417.7,299.2C417.7,299.4,417.5,299.2,417.7,299.2L417.7,299.2z M417.5,299.7c0,0.2-0.2,0-0.2-0.2
				C417.2,299.4,417.5,299.4,417.5,299.7z M417,299.2C417,299.2,417,299.4,417,299.2C417,299.4,416.7,299.2,417,299.2z M416.7,298.9
				C416.7,298.9,417,299.2,416.7,298.9C417,298.9,416.7,298.9,416.7,298.9z M416.7,298.9C417,299.2,416.7,298.9,416.7,298.9
				L416.7,298.9z M415.5,296.5L415.5,296.5C415.5,296.2,415.7,296.5,415.5,296.5z M415.2,297.2C415.2,297.2,415,297,415.2,297.2
				C415,297,415.2,297.2,415.2,297.2z M412.5,297.5c1.7,0.5,7.1,4.2,5.4,5.2C414,304.6,406.6,295,412.5,297.5z M411.3,295.2
				C411,295.2,411.3,295.2,411.3,295.2L411.3,295.2z M412,296C411.8,296,411.8,295.7,412,296L412,296z M403.9,291.1
				c3-15.8,13.5,5.4,3.9,2.5C404.6,293.5,402.7,295,403.9,291.1z M404.4,295.2L404.4,295.2C404.1,295.2,404.4,295.2,404.4,295.2z
				 M403.7,296L403.7,296C403.4,296.2,403.7,295.7,403.7,296z M403.7,297.2c5.2-2-1.7,7.4-5.4,5.4
				C394.5,302.6,401.7,297.7,403.7,297.2z M397,299.4C397,299.4,397.3,299.4,397,299.4C397,299.7,397,299.7,397,299.4z M398,299.2
				L398,299.2C398,299.2,397.7,299.4,398,299.2z M398.2,299.7C398.2,299.4,398.7,299.4,398.2,299.7
				C398.5,299.7,398.2,299.7,398.2,299.7z M398.7,299.2L398.7,299.2C398.7,299.2,398.7,299.4,398.7,299.2z M399,298.9L399,298.9
				C398.7,298.9,398.7,298.9,399,298.9z M400,296.5C400,296.2,400.2,296.2,400,296.5L400,296.5z M400.5,297.2
				C400.2,297,400.7,297,400.5,297.2L400.5,297.2z M392.8,288.8c8.4,2.5,10.8,5.2,3,10.1C393.1,299.9,392.3,291.1,392.8,288.8z
				 M394,312.2C394.3,312.5,394.3,312.5,394,312.2C394.3,312.7,394,312.2,394,312.2z M394,307.1C394,307.1,394.3,306.8,394,307.1
				C394.3,307.1,394,307.3,394,307.1z M394.3,312.7C394.3,313,394.3,313,394.3,312.7C394,313,394.3,312.5,394.3,312.7z M394.3,306.8
				L394.3,306.8C394,306.8,394.3,306.3,394.3,306.8z M386.9,306.6C386.7,306.3,386.9,306.6,386.9,306.6L386.9,306.6z M387.6,308.5
				L387.6,308.5C387.6,308.3,387.6,308.5,387.6,308.5z M384.7,303.9c-3.7-3.4,3.7-3.2,6.9-3.7C395.5,298.7,392.3,315.7,384.7,303.9z
				 M394,307.3L394,307.3L394,307.3z M393.8,313C393.8,313,393.8,313.2,393.8,313L393.8,313z M393.8,306.6
				C393.8,306.3,393.8,306.3,393.8,306.6L393.8,306.6z M393.6,314L393.6,314C393.6,314.2,393.3,313.7,393.6,314z M393.6,305.6
				C393.6,305.6,393.6,305.3,393.6,305.6C393.6,305.6,393.6,305.8,393.6,305.6z M393.1,309.8L393.1,309.8
				C393.1,310,393.1,309.5,393.1,309.8z M392.3,309.8L392.3,309.8C392.3,309.8,392.3,309.5,392.3,309.8z M390.8,319.1
				c-14.8,2.5,1-15,1.7-4.2C393.6,317.7,395,319.6,390.8,319.1z M401.4,325.8c-7.1,7.6-11.8,3-6.4-5.4
				C395.8,321.1,401.9,324.3,401.4,325.8z M397,319.9C396.8,319.9,397,320.1,397,319.9C397,320.1,397,320.1,397,319.9z M398,320.1
				C397.7,320.1,397.7,320.1,398,320.1C398,320.4,398,320.4,398,320.1z M398.2,319.9c0,0,0.2,0,0.2,0.2L398.2,319.9z M398.7,320.4
				L398.7,320.4C398.7,320.1,398.7,320.4,398.7,320.4z M398.7,320.4C399,320.6,398.5,320.4,398.7,320.4L398.7,320.4z M398.7,320.6
				C398.7,320.6,399,320.6,398.7,320.6C399,320.6,398.7,320.4,398.7,320.6z M400.2,323.1C400.2,323.1,400.2,323.3,400.2,323.1
				C400,323.1,400,323.1,400.2,323.1z M400.5,322.3C400.5,322.3,400.5,322.6,400.5,322.3C400.5,322.6,400.2,322.3,400.5,322.3z
				 M400.2,320.6c-4.7-3.4-2.7-4.2,2.2-3.4C406.1,322.1,406.6,324.6,400.2,320.6z M404.4,324.3C404.4,324.3,404.1,324.3,404.4,324.3
				L404.4,324.3z M403.7,323.6C403.7,323.8,403.4,323.3,403.7,323.6L403.7,323.6z M411.8,328.5c-3,15.5-13.5-5.4-3.9-2.5
				C411,326,413,324.6,411.8,328.5z M411.3,324.3L411.3,324.3C411.5,324.3,411,324.3,411.3,324.3z M411.8,323.6L411.8,323.6
				C412.3,323.3,412,323.6,411.8,323.6z M412,325.5L412,325.5L412,325.5z M412,322.1c-4.9,2.7,0.5-6.2,3.4-5.2
				C422.4,315.7,415,321.4,412,322.1z M418.7,320.1L418.7,320.1C418.4,320.1,418.7,319.9,418.7,320.1z M417.7,320.1
				C417.7,320.4,417.7,320.4,417.7,320.1C417.5,320.4,417.9,320.1,417.7,320.1z M417.5,319.9l-0.2,0.2L417.5,319.9z M417,320.1
				C417,320.4,417,320.4,417,320.1C416.7,320.4,417,320.1,417,320.1z M415.5,323.1C415.5,323.3,415.5,323.1,415.5,323.1
				S415.7,323.1,415.5,323.1z M415.2,322.3l-0.2,0.2L415.2,322.3z M422.9,330.5c-7.6-2-11.3-5.2-3-10.1
				C422.6,319.6,423.1,328.5,422.9,330.5z M432.2,317.7c-3.4,1.2-13.5,3.7-9.1-2.5C423.6,306.6,430,314,432.2,317.7z" />
			</g>
			<g>
				<path style="fill:#76E0D5;"
					d="M431,189.1c-4.4-3.2-5.7-4.2-2.7-8.6c-6.2-0.2-4.4-3.4-4.2-8.1c-7.4,1.2-6.2,0.7-8.6-3.9
				c-5.9,5.9-5.4-4.2-9.4-2c-3.2,3.7-3.2,5.2-7.6,2c-2.7,5.7-1.2,4.9-8.6,4.2c0.5,7.1,1.2,6.4-4.2,8.6c4.7,5.4-1,4.9-2.7,8.9
				c4.2,3.4,6.2,3.9,2.5,8.6c7.1,0.2,3.7,4.2,4.7,8.1c6.4-0.5,6.4-2,7.9,4.4c5.2-3.9,4.9-1.5,8.4,2.5c4.2-1.2,3-7.6,8.9-2.5
				c2.5-5.4,1.5-4.9,8.6-4.2c0-4.9-2-7.9,4.4-8.4C423.9,192.5,428.8,192.8,431,189.1z M426.1,180.7c3,0-1.7,3.4-3.4,3.9
				C419.4,182.4,421.9,180,426.1,180.7z M422.4,189.3C422.4,189.1,422.4,189.3,422.4,189.3C422.4,189.6,422.4,189.6,422.4,189.3z
				 M422.4,190.1c0,0.2,0,1.2-0.2,1.2C422.4,191.3,422.4,190.1,422.4,190.1z M421.4,187.6L421.4,187.6L421.4,187.6z M421.4,190.8
				C421.4,191,421.4,190.8,421.4,190.8L421.4,190.8z M421.1,184.6l0.2,0.5L421.1,184.6z M421.4,186.9
				C421.4,186.6,421.4,186.9,421.4,186.9C421.4,187.3,421.4,187.3,421.4,186.9z M421.1,184.4C421.1,184.6,421.1,184.4,421.1,184.4
				L421.1,184.4z M420.7,183.6C420.4,183.2,420.9,183.6,420.7,183.6C420.9,183.9,420.9,183.9,420.7,183.6z M420.7,194.7
				C420.9,194.7,420.4,195.5,420.7,194.7L420.7,194.7z M417.7,174l-0.5,0.2C417.2,174.3,417.7,174,417.7,174z M417.2,175.5
				c4.9-5.2,8.1-0.5,3.2,3.7C419.7,180.2,415.7,176.5,417.2,175.5z M420.7,195.7C420.7,195.7,420.4,196,420.7,195.7
				C420.4,196,420.4,195.7,420.7,195.7z M420.4,196c0,0-0.2,0.2-0.2,0.5C420.2,196.5,420.2,196.2,420.4,196z M419.7,191L419.7,191
				C419.7,191,419.7,190.8,419.7,191z M417.9,178.2C417.9,178.2,418.2,178.5,417.9,178.2C418.2,178.5,417.9,178.5,417.9,178.2z
				 M419.9,190.8L419.9,190.8C419.7,190.8,419.7,190.5,419.9,190.8z M412.3,172.3c4.7-8.9,5.2,5.7,0,2
				C410.8,174.3,412,173.5,412.3,172.3z M415.5,177.5C415.5,177.5,415.2,177.2,415.5,177.5C415.2,177.2,415.5,177.5,415.5,177.5z
				 M414.2,176c0,0-0.5-0.2-0.2-0.2C413.8,175.8,414,176,414.2,176z M413,175.8l-0.5-0.2C412.3,175.5,413,175.5,413,175.8z
				 M411.3,175h0.2C412.3,175.3,411.3,175,411.3,175z M409.6,175L409.6,175C409.3,175,409.6,175,409.6,175z M404.6,170.8
				c2.2-10.3,9.4,5.4,0.5,2.7C404.1,173.8,404.6,171.3,404.6,170.8z M409.1,176.5L409.1,176.5C408.8,176.5,409.1,176.5,409.1,176.5z
				 M408.8,176.5L408.8,176.5C408.6,176.5,408.8,176.5,408.8,176.5z M408.6,176.5L408.6,176.5C408.3,176.5,408.6,176.5,408.6,176.5z
				 M407.4,173.8C407.1,173.8,406.6,173.8,407.4,173.8L407.4,173.8z M405.6,176.5L405.6,176.5C405.4,176.5,405.6,176.5,405.6,176.5z
				 M405.4,176.5L405.4,176.5L405.4,176.5z M405.1,176.5L405.1,176.5C405.1,176.5,405.4,176.5,405.1,176.5z M404.6,175
				C404.9,175,404.6,175,404.6,175L404.6,175z M402.9,175c0.2,0-0.5,0.2-0.5,0.2C402.4,175,402.7,175,402.9,175z M398.5,170.3
				c0-3.4,4.2,2.7,4.2,3.9C399,176.5,398.2,173.5,398.5,170.3z M402.4,175C402.4,175,402.2,175,402.4,175
				C402.2,175,402.4,175,402.4,175z M401.4,175.5c-0.2,0.2-0.5,0.2-0.5,0.2S401.9,175.3,401.4,175.5z M399.5,179l-0.2,0.2
				C399.5,179,399.7,178.7,399.5,179z M398.5,177.5C398.7,177.2,398.7,177.5,398.5,177.5C398.5,177.7,398.5,177.7,398.5,177.5z
				 M398.2,178L398.2,178C398,178.2,398.2,178,398.2,178z M398,180.2C398,180,398,180.2,398,180.2L398,180.2z M398,180.2
				c5.4-5.4,15.3-4.7,19.5,2C412.8,180.7,395,184.4,398,180.2z M407.1,204.6C407.4,204.6,406.9,204.6,407.1,204.6
				C406.9,204.6,406.9,204.6,407.1,204.6z M407.1,199.7c-0.2-0.7-3-4.2-1.2-3.2C410.3,196.2,408.6,197,407.1,199.7z M409.6,184.4
				c5.4,2.2,3.2,10.8-2.5,10.8C398.2,194.7,401.2,180.7,409.6,184.4z M401.7,184.9c-2.2,5.2-2.7,2-4.9-0.7
				C398,184.4,403.9,183.2,401.7,184.9z M414.2,188.6c-0.2-1.7-1-3.4-2.5-4.7C417.9,183.6,417.7,184.1,414.2,188.6z M394.5,186.9
				C394.5,187.1,394.5,186.9,394.5,186.9L394.5,186.9z M394.5,187.1c0,0,0,0.5,0,0.2C394.3,187.3,394.5,187.1,394.5,187.1z
				 M395.3,180.9l0.2-0.2C395.5,180.7,395,181.2,395.3,180.9z M396,178.5l0.2-0.2C396.3,178.2,396,178.7,396,178.5z M396.8,181.4
				C396.8,181.4,397,181.2,396.8,181.4C397,181.4,396.8,181.7,396.8,181.4z M390.8,173.5c1.5-1.2,5.7,1.2,6.7,3.2
				C394,181.4,391.6,178.7,390.8,173.5z M394.3,187.6L394.3,187.6C394.3,187.6,394.3,187.3,394.3,187.6z M394.3,187.8L394.3,187.8
				C394.3,187.8,394.3,187.6,394.3,187.8z M394,182.2C394,182.2,393.8,182.2,394,182.2C393.6,182.9,393.8,182.2,394,182.2z
				 M393.6,182.7C393.8,182.7,393.6,182.7,393.6,182.7L393.6,182.7z M393.6,195C393.6,195.2,393.3,195,393.6,195
				C393.3,194.7,393.3,194.7,393.6,195z M393.3,183.6c0-0.2,0-0.2,0-0.2C393.6,183.4,393.3,183.9,393.3,183.6z M387.2,181.4
				c-0.2-1.5,4.7-0.5,6.2,0.5C392.3,186.4,389.1,183.9,387.2,181.4z M392.8,190.8C392.8,190.8,392.8,191,392.8,190.8
				C392.6,191,392.8,190.8,392.8,190.8z M392.8,187.6L392.8,187.6C392.8,187.6,392.8,187.8,392.8,187.6z M392.8,191.5
				C392.8,192,392.6,191.5,392.8,191.5C392.6,191,392.8,191.3,392.8,191.5z M392.8,193.5l0.2,0.5C392.8,194,392.6,193.5,392.8,193.5
				z M391.8,187.3L391.8,187.3C391.8,187.6,391.8,187.1,391.8,187.3z M391.8,187.8L391.8,187.8C391.6,188.1,391.6,187.6,391.8,187.8
				z M391.6,189.1L391.6,189.1C391.6,189.3,391.6,188.8,391.6,189.1z M391.6,188.3C391.6,188.1,391.6,188.3,391.6,188.3L391.6,188.3
				z M388.4,191.5c-10.1-2.2,5.9-9.1,3,0C390.8,191.8,389.4,191.8,388.4,191.5z M390.6,197.7c-6.2,1.2-2.2-3,1.5-4.2
				C393.1,196,393.6,197.7,390.6,197.7z M396.5,204.3c-0.2,0.2-0.5,0.2-0.5,0.2C396.3,204.3,397.3,203.8,396.5,204.3z M397,202.9
				c-5.7,5.7-8.1-0.5-2.5-4.2C395,200.2,398.5,201.4,397,202.9z M396,199.9C396,199.9,396.3,200.2,396,199.9
				C396.3,200.2,396,199.9,396,199.9z M396.8,196.7C396.8,196.7,396.8,197,396.8,196.7C396.8,197,396.8,196.7,396.8,196.7z
				 M401.7,206.3c-3.7,5.9-4.2,0.2-2.2-3.4C401.4,204.1,403.7,203.8,401.7,206.3z M398.5,200.9C398.7,200.9,399,201.4,398.5,200.9
				C398.5,201.1,398.5,200.9,398.5,200.9z M400,202.4c0,0,0.5,0.2,0.2,0.2C400.5,202.6,400,202.4,400,202.4z M400.5,202.6
				L400.5,202.6C400.5,202.9,400.5,202.6,400.5,202.6z M401.2,202.9l0.5,0.2C401.7,203.1,401.2,202.9,401.2,202.9z M402.4,203.6
				c-0.5-0.2,0.2,0,0.2,0C402.9,203.6,402.7,203.6,402.4,203.6z M404.4,201.4c-7.4-1.5-11.8-9.9-9.1-16.8
				C396.5,188.8,406.6,200.4,404.4,201.4z M405.4,201.9L405.4,201.9L405.4,201.9z M405.1,201.9L405.1,201.9L405.1,201.9z
				 M404.6,203.6L404.6,203.6C404.6,203.6,404.4,203.6,404.6,203.6z M409.6,207.1c-1.5,11.3-9.9-4.7-0.5-2.2
				C409.8,204.6,409.3,206.3,409.6,207.1z M408.6,201.9L408.6,201.9C408.6,202.1,408.6,202.1,408.6,201.9z M408.8,201.9
				C408.6,201.9,408.8,201.9,408.8,201.9L408.8,201.9z M409.1,201.9C408.8,201.9,409.1,201.9,409.1,201.9L409.1,201.9z M409.3,203.6
				C409.3,203.6,409.6,203.6,409.3,203.6C409.6,203.6,409.6,203.6,409.3,203.6z M411.3,203.6c0,0,0.2-0.2,0.5-0.2
				C411.8,203.4,411.3,203.6,411.3,203.6z M415.5,209c-1,1.2-4.2-3.7-3.9-4.7C415.5,201.6,416,205.6,415.5,209z M411.8,203.4
				C411.8,203.4,412,203.4,411.8,203.4L411.8,203.4z M412.8,202.9c0.2-0.2,0.2-0.2,0.2,0C413,202.9,412,203.1,412.8,202.9z
				 M414.5,199.7l0.2-0.2C414.7,199.4,414.5,199.7,414.5,199.7z M415.5,201.1C415.2,201.1,415.7,200.9,415.5,201.1
				C415.5,200.9,415.5,201.1,415.5,201.1z M416,200.6C416,200.6,416.2,200.4,416,200.6C416,200.4,416,200.4,416,200.6z M416.2,198.4
				C416,198.4,416,198.4,416.2,198.4C416.2,198.2,416.2,198.2,416.2,198.4z M416,198.2c-13.8,9.9-0.5-6.2,2.2-12.3
				C421.4,184.9,419.2,196,416,198.2z M419.7,191v0.5V191z M419.7,191.8L419.7,191.8L419.7,191.8z M418.9,197.7L418.9,197.7
				C418.7,197.7,419.2,197.2,418.9,197.7z M417.9,200.2C418.2,200.2,417.9,200.4,417.9,200.2C417.7,200.2,417.9,200.2,417.9,200.2z
				 M417.5,196.7l-0.2,0.2C417.2,197.2,417.5,196.7,417.5,196.7z M423.1,204.8c-1.5,1.5-5.7-1.2-6.7-3
				C419.7,197.2,422.6,199.9,423.1,204.8z M427.1,197.2c0,1.5-5.2,0.2-6.2-0.5C421.6,192,425.1,194.7,427.1,197.2z M428.8,190.3
				c-3.9,3.4-8.4,0-5.2-3.4C425.3,186.6,431.7,188.3,428.8,190.3z" />
			</g>
			<g>
				<path style="fill:#BFC0FF;"
					d="M434.4,92.3C425.3,79.7,424.3,75,407.6,78c-16.3-3.2-18.5,2.5-27.1,14.5
				c9.1,12.6,10.1,17.5,27.1,14.5C424.3,110,425.8,104.6,434.4,92.3z M417.7,77.2L417.7,77.2L417.7,77.2z M415.7,83.1
				C415.7,83.1,415.7,82.9,415.7,83.1C415.7,82.9,415.7,83.1,415.7,83.1z M415.7,82.9C415.7,82.9,415.5,82.9,415.7,82.9
				C415.5,82.9,415.7,82.9,415.7,82.9z M415.5,82.9C415.7,82.9,415.5,82.6,415.5,82.9C415.5,82.6,415.5,82.6,415.5,82.9z M414,81.2
				C414.2,81.2,414,81.2,414,81.2C414,80.9,414,81.2,414,81.2z M410.6,79.4C410.8,79.4,410.8,79.4,410.6,79.4
				C410.8,79.4,410.6,79.4,410.6,79.4z M408.1,80.2C408.3,80.2,408.1,80.2,408.1,80.2L408.1,80.2z M406.9,80.2
				C407.1,80.2,407.1,80.2,406.9,80.2L406.9,80.2z M404.4,79.4C404.4,79.4,404.1,79.4,404.4,79.4C404.4,79.4,404.6,79.4,404.4,79.4z
				 M400.9,81.2C401.2,80.9,400.9,81.2,400.9,81.2L400.9,81.2z M399.7,82.6L399.7,82.6C399.5,82.9,399.7,82.6,399.7,82.6z
				 M399.5,82.9C399.5,82.9,399.5,83.1,399.5,82.9C399.5,83.1,399.5,83.1,399.5,82.9z M400.7,82.9c3-2.2,7.9-3,11.3-1.2
				c8.1,4.4,2.2,4.2-3.7,3.7C404.1,84.9,394.5,87.3,400.7,82.9z M416.2,83.1C416.5,83.1,416.5,83.1,416.2,83.1
				C416.5,83.1,416.2,83.1,416.2,83.1z M419.7,89.8C419.7,89.8,419.7,89.5,419.7,89.8C419.7,89.5,419.7,89.8,419.7,89.8z
				 M419.7,95.2L419.7,95.2C419.7,95.2,419.7,94.7,419.7,95.2z M407.8,101.9c-0.7-4.2-13.5-15.5-6.4-14.5
				C420.2,85.6,416.2,89.1,407.8,101.9z M417.2,83.4C417.2,83.1,417.2,83.1,417.2,83.4C417.2,83.1,417.2,83.4,417.2,83.4z
				 M397.7,83.4C397.7,83.1,398,83.1,397.7,83.4L397.7,83.4z M398.7,83.1L398.7,83.1L398.7,83.1z M397,104.8
				C396.8,104.8,396,104.8,397,104.8C397.3,104.8,397.3,104.8,397,104.8z M397.3,107.8C397.3,107.5,397.5,107.5,397.3,107.8
				C397.5,107.8,397.3,107.8,397.3,107.8z M398,104.6c-17.7-0.2-17-25.4,1-24.1C389.4,86.3,394.3,99.9,398,104.6z M395.3,94.7
				C395.3,94.7,395.5,94.7,395.3,94.7C395.3,95,395.3,94.7,395.3,94.7z M395.3,90C395.3,90,395.3,89.8,395.3,90
				C395.5,90,395.3,90.3,395.3,90z M395.5,95.2C395.5,95.2,395.3,95.2,395.5,95.2C395.5,95,395.5,95,395.5,95.2z M395.5,89.8
				L395.5,89.8C395.3,89.8,395.5,89.3,395.5,89.8z M395.3,90.3C395.3,90.3,395.3,90,395.3,90.3L395.3,90.3z M395,95.5L395,95.5
				C395,95.5,395,95.2,395,95.5z M395,89.5C395,89.5,395,89.3,395,89.5L395,89.5z M394.8,96.2C394.8,96.4,394.8,96,394.8,96.2
				L394.8,96.2z M394.5,92.3C394.5,92.5,394.5,92.5,394.5,92.3C394.5,92.7,394.5,92.3,394.5,92.3z M393.8,92.5L393.8,92.5
				C393.8,92.5,393.8,92.3,393.8,92.5z M397.7,101.6C397.7,101.4,398,101.6,397.7,101.6C398,101.6,397.7,101.6,397.7,101.6z
				 M398.7,101.9C398.7,101.6,398.7,101.6,398.7,101.9L398.7,101.9z M399.5,101.9L399.5,101.9C399.5,102.1,399.5,102.1,399.5,101.9z
				 M399.5,101.9C399.2,101.6,399.5,101.9,399.5,101.9L399.5,101.9z M399.7,102.1C399.5,102.1,399.5,102.1,399.7,102.1
				C399.5,102.1,399.7,102.1,399.7,102.1z M400.9,103.8C400.7,103.6,400.9,103.6,400.9,103.8C401.2,103.8,401.2,103.8,400.9,103.8z
				 M404.4,105.3C404.1,105.3,404.4,105.3,404.4,105.3C404.6,105.3,404.4,105.3,404.4,105.3z M405.9,104.1
				c-7.4-1.2-12.1-9.4-9.1-16.5C398.2,92.3,406.9,101.9,405.9,104.1z M406.9,104.6C406.9,104.6,407.1,104.6,406.9,104.6
				C407.1,104.8,407.1,104.8,406.9,104.6z M410.6,105.3C410.6,105.3,410.8,105.3,410.6,105.3L410.6,105.3z M414,103.8L414,103.8
				C414,103.6,414.2,103.6,414,103.8z M413,102.8c-8.9,4.7,3.9-9.6,5.2-13.8C421.1,90.5,417.9,101.4,413,102.8z M417.2,101.6
				L417.2,101.6C417.2,101.6,417.2,101.4,417.2,101.6z M416.5,101.9L416.5,101.9C416.2,101.9,416.5,101.6,416.5,101.9z M415.7,101.9
				C415.5,101.9,415.7,101.6,415.7,101.9L415.7,101.9z M416,101.6C415.7,101.6,416,101.4,416,101.6L416,101.6z M418.4,104.8
				C418.4,104.8,417.7,104.8,418.4,104.8C418.4,104.8,418.7,104.8,418.4,104.8z M432.5,92.5c-4.7,4.7-7.9,14.3-16.5,11.6
				c3.7-2.7,6.2-6.9,6.2-11.8c0-4.7-2.5-9.1-6.2-11.8C424.1,78,428.5,88.1,432.5,92.5z M419.7,94.7C419.7,94.7,419.7,95,419.7,94.7
				C419.7,95,419.7,94.5,419.7,94.7z M419.7,90L419.7,90C419.7,90.3,419.7,90.3,419.7,90z M419.9,94.5
				C419.9,94.5,419.9,94.7,419.9,94.5C419.9,94.7,419.9,94.5,419.9,94.5z M419.9,90.3L419.9,90.3L419.9,90.3z M419.9,89.5
				C419.9,89.5,419.9,89.3,419.9,89.5C420.2,89.3,420.2,89.5,419.9,89.5z M420.2,95.5C419.9,95.5,419.9,95.2,420.2,95.5
				C420.2,95.2,420.2,95.5,420.2,95.5z M420.4,96.2L420.4,96.2C420.4,96.2,420.2,96.4,420.4,96.2z M420.7,92.3L420.7,92.3
				C420.7,92.7,420.4,92.3,420.7,92.3z M421.4,92.5C421.4,92.5,421.4,92.3,421.4,92.5L421.4,92.5z" />
			</g>
			<g>
				<path style="fill:#EE9FFF;"
					d="M421.4,4.6C421.1,4.6,421.4,4.6,421.4,4.6L421.4,4.6z M430.5,31.2c-8.1,2.7-1.7,5.9-7.6,6.7
				c-2,4.7,0,6.2-5.9,4.7c-4.7,5.2-4.4-1.7-9.1,5.4c-4.4-6.4-5.9-0.2-8.9-5.4c-6.2,1-4.7,0.5-6.4-4.7c-5.7-0.5,0.2-4.4-6.7-6.2
				c-2.5-0.2,2.2-3.7,1.2-5.7c-3.4-3,2.5-5.4-2.5-9.9c7.4-1.2,3-5.7,6.9-6.2c3.2-0.2,0.5-6.9,3.2-5.4c2.5,0.7,5.7,0.7,5.9-2.5
				c2.2,2.7,4.9,0.5,6.7-1.7c1.2-2,3,4.7,5.9,2.7c3-1.7,2.2,4.2,8.9,1.2c-0.2,3,0.7,6.7,4.2,6.2c-2.2,3,2,5.2,3.9,5.7
				c1,1.2-4.4,5.9,0.2,7.4C427.8,25.2,428,28.5,430.5,31.2z M427.8,24.8c0.2-0.2,1.7-1,1-1.2C426.8,21.3,426.3,25,427.8,24.8z
				 M427.1,20.6c2.5-3.7,2.2-3.7-1.7-5.2C423.6,18.6,423.6,18.6,427.1,20.6z M425.6,25c-0.7,0.5-4.4,2-2.7,2.7
				C424.1,27.2,427.6,26.5,425.6,25z M422.9,29.2C422.9,29.2,422.9,29.4,422.9,29.2L422.9,29.2z M422.9,23.8c-0.5,1.7,1.2,0.2,1.5,0
				C424.1,23.8,422.4,22.3,422.9,23.8z M426.1,22c0.5-1.2-5.7-3.4-3.2-0.5C424.1,21.3,425.6,23.5,426.1,22z M424.3,13.2
				c0-0.7,1.5-2.2-0.5-2C422.1,11,423.1,13.2,424.3,13.2z M421.6,18.4c1-1,3.7-4.2,1-4.2C422.4,15.9,420.7,16.6,421.6,18.4z
				 M420.7,32.6c-0.5-1.5-0.7,0.5-1.2,0.7C420.2,33.6,421.9,34.4,420.7,32.6z M394.5,32.4c-1.7,1.7,1.2,1.7,1,0.7
				C395.3,33.1,394.8,31.7,394.5,32.4z M394.8,15.6l0.2-0.2C397,13.7,392.6,13.4,394.8,15.6z M420.7,15.4c1.2-1.5,0-1.7-1.2-1.2
				C419.7,14.4,420.4,15.9,420.7,15.4z M417.9,12.7c0.5,0.7,2.7-0.2,3.7-0.5C422.6,9.7,415.7,11.7,417.9,12.7z M421.4,9.5
				c-0.5-3.9,0-4.2-4.2-3.2C417,9.7,417.7,10.5,421.4,9.5z M415.7,11c0.2-1,0.2-3.2-0.2-4.2C413.5,6.8,414.2,11,415.7,11z
				 M414.2,5.5c1-0.7-0.5-2.7-1.5-1C412.5,4.8,413.5,6,414.2,5.5z M413,9.5c0,0,0-1.2-0.2-1.7C410.8,9.2,412,9.2,413,9.5z
				 M409.6,8.7c0.7-0.2,3.2-2.5,2-3.2C411,4.8,406.9,9.2,409.6,8.7z M407.4,6.8c3.9-0.5,1.5-8.6-2-3.2
				C403.9,4.6,407.1,5.5,407.4,6.8z M405.6,8.7c2.5,0-1-3-1.7-3.4C402.2,6,404.9,8.5,405.6,8.7z M402.2,9.2c0.5,0.5,2.5-0.2,0.7-1.2
				C402.2,7.3,402.2,8.7,402.2,9.2z M401.7,5.8c1.2-1.2,0.2-1.5-0.7-2.2C400.5,4.6,400,5.5,401.7,5.8z M400.7,10
				c0.5-2.2-0.7-5.4-1.5-1.2C399,10.2,399.7,11.7,400.7,10z M393.8,9.5c3.4,1,3.9,0.7,4.4-3.2C394.3,5.5,394,5.3,393.8,9.5z
				 M393.8,11.7c0.2,1,3.7,1.5,4.2,0.2C397.3,11.5,393.6,10.2,393.8,11.7z M393.6,4.8L393.6,4.8C393.6,4.8,393.6,5,393.6,4.8z
				 M393.3,11.9L393.3,11.9L393.3,11.9z M392.3,14.2c-2.5,0,0.2,3.4,1,4.2C394.5,16.9,392.8,15.6,392.3,14.2z M389.6,22.8
				c0.7-1,3-0.7,3-2C393.3,18.8,386.9,21.6,389.6,22.8z M392.6,18.6l-0.2-0.2C392.1,18.4,392.6,18.6,392.6,18.6z M392.3,23.8
				c0.2-1.7-0.7-0.2-1.7,0C391.6,24.3,392.6,25.5,392.3,23.8z M392.6,27.7c0.7,0,0-2-1-1.7C387.4,23.8,389.6,28,392.6,27.7z
				 M390.8,13.2c1.5,0,2.2-2.2,0.5-2C389.4,11,390.8,12.2,390.8,13.2z M390.4,13.2L390.4,13.2C390.4,13.2,390.4,13.4,390.4,13.2z
				 M391.8,18.6c-1.5-3.4-3.4-3.4-5.7-1.7C387.9,20.3,388.1,20.3,391.8,18.6z M387.2,24.5c0.7,0.7,0.7-0.2,1.5-0.7
				C388.1,22,384.9,23.5,387.2,24.5z M389.9,32.4c1.7-3.4,1.5-3.2-1.7-5.2C385.7,30.9,385.9,31.2,389.9,32.4z M390.8,34.6
				c0,0.7-1.5,2.2,0.5,2C393.1,36.8,392.1,34.6,390.8,34.6z M393.1,29.7c-2.7,1.7-1.7,6.2,0.2,2C394.3,31.2,393.8,29.2,393.1,29.7z
				 M396.8,34.6c-0.7,0.7-3.7,0-3,1.7C394.3,37.3,399.7,36.1,396.8,34.6z M393.8,38.3c0.5,3.7,0,4.4,3.9,3.2
				C398.7,38.6,397.3,37.1,393.8,38.3z M400.5,37.3c-2.2-2-1.2,3-0.7,3.7C401.7,41,400.5,38.3,400.5,37.3z M402.4,43.2
				c0.2-1-1.2-1.5-2-0.7C400.7,44.5,401.4,44.2,402.4,43.2z M402.2,38.1c-0.2,0.2,0.2,1.2,0.2,1.7C403.9,38.6,403.7,38.6,402.2,38.1
				z M403.9,42.2c0.7-0.2,4.4-3.7,1.7-3.4C404.6,39.3,402.4,41.5,403.9,42.2z M405.4,43c-1.5,0.5,2.2,2.7,2.2,3.4
				c0.5-0.2,0.7-1.2,2-2.2C411,42.2,407.1,39.5,405.4,43z M409.6,39c-2.7-0.2,1.2,3.2,1.7,3.4C413,41.5,410.6,39.3,409.6,39z
				 M413,38.1c-0.2,0.2-2.2,0.2-1.2,1C413,40.5,413,39.3,413,38.1z M412.8,43c1,0.7,1.7,2,1.7,0.2C415,42,413.8,41.5,412.8,43z
				 M414.5,37.8c-0.5,2,0.7,5.4,1.5,1.2C416.2,37.6,415.5,35.8,414.5,37.8z M417.9,37.6c-0.7-0.2-0.5,2.7-1,3.7
				c3,0.2,4.4,2.2,4.2-1.7C422.1,37.1,419.2,38.6,417.9,37.6z M421.4,36.1c-0.2-1.2-3.4-1.7-4.2-0.2
				C418.2,36.1,421.6,37.6,421.4,36.1z M421.9,36.1C422.1,35.8,421.9,35.8,421.9,36.1L421.9,36.1z M421.6,29.7
				c-1,1.2,0.7,2.5,1.2,3.9C425.6,33.6,422.4,28.9,421.6,29.7z M424.3,34.6c-1.2,0-2.2,2.2-0.5,2C425.8,36.8,424.3,35.6,424.3,34.6z
				 M424.8,34.4C425.1,34.4,424.8,34.4,424.8,34.4L424.8,34.4z M429.3,30.9c-1.2-2.7-2.5-3.9-5.7-2
				C425.3,32.4,425.6,32.6,429.3,30.9z M393.8,43.2L393.8,43.2C394,43,393.8,43.2,393.8,43.2z" />
			</g>
		</g>
	</g>
</svg>